<?xml version="1.0" encoding="utf-8"?>
<!-- Generator: Adobe Illustrator 27.5.0, SVG Export Plug-In . SVG Version: 6.00 Build 0)  -->
<svg version="1.1" xmlns="http://www.w3.org/2000/svg" xmlns:xlink="http://www.w3.org/1999/xlink" x="0px" y="0px"
	 viewBox="0 0 500 500" style="enable-background:new 0 0 500 500;" xml:space="preserve">
<g id="BACKGROUND">
	<linearGradient id="SVGID_1_" gradientUnits="userSpaceOnUse" x1="-9.863" y1="33.2228" x2="459.788" y2="425.0048">
		<stop  offset="0" style="stop-color:#292E43"/>
		<stop  offset="1" style="stop-color:#171D2E"/>
	</linearGradient>
	<rect style="fill:url(#SVGID_1_);" width="500" height="500"/>
</g>
<g id="OBJECTS">
	<g>
		<path style="fill:#6C77A1;" d="M35.938,41.632c-4.545,0-8.242-3.697-8.242-8.242c0-4.544,3.697-8.242,8.242-8.242h174
			c4.544,0,8.242,3.697,8.242,8.242c0,4.545-3.697,8.242-8.242,8.242H35.938z"/>
		
			<linearGradient id="SVGID_00000140002555075287590040000016103716806660093320_" gradientUnits="userSpaceOnUse" x1="115.7305" y1="19.5663" x2="143.9886" y2="73.7598">
			<stop  offset="0" style="stop-color:#3D4463"/>
			<stop  offset="1" style="stop-color:#1D253B"/>
		</linearGradient>
		<path style="fill:url(#SVGID_00000140002555075287590040000016103716806660093320_);" d="M209.938,41.132h-174
			c-4.276,0-7.742-3.466-7.742-7.742l0,0c0-4.276,3.466-7.742,7.742-7.742h174c4.276,0,7.742,3.466,7.742,7.742l0,0
			C217.68,37.666,214.214,41.132,209.938,41.132z"/>
		<text transform="matrix(1 0 0 1 38.1983 35.591)" style="fill:#FFFFFF; font-family:'Roboto-Medium'; font-size:7px;">Menu 01</text>
		<text transform="matrix(1 0 0 1 85.5693 35.591)" style="fill:#FFFFFF; font-family:'Roboto-Medium'; font-size:7px;">Menu 02</text>
		
			<linearGradient id="SVGID_00000162330148888062164920000003286515361846867361_" gradientUnits="userSpaceOnUse" x1="136.6598" y1="22.5263" x2="161.692" y2="49.8811">
			<stop  offset="0" style="stop-color:#008FC7"/>
			<stop  offset="1" style="stop-color:#78DBAD"/>
		</linearGradient>
		<path style="fill:url(#SVGID_00000162330148888062164920000003286515361846867361_);" d="M162.544,41.132h-31.887
			c-4.276,0-7.742-3.466-7.742-7.742l0,0c0-4.276,3.466-7.742,7.742-7.742h31.887c4.276,0,7.742,3.466,7.742,7.742l0,0
			C170.286,37.666,166.82,41.132,162.544,41.132z"/>
		<text transform="matrix(1 0 0 1 132.9885 35.591)" style="fill:#FFFFFF; font-family:'Roboto-Medium'; font-size:7px;">Selected</text>
		<text transform="matrix(1 0 0 1 181.6446 35.591)" style="fill:#6C77A1; font-family:'Roboto-Medium'; font-size:7px;">Inactive</text>
	</g>
	<g>
		<g>
			<g>
				<path style="fill:#6C77A1;" d="M32.456,68.277c-2.625,0-4.76-2.135-4.76-4.76v-6.254c0-2.625,2.135-4.76,4.76-4.76h34.061
					c2.625,0,4.76,2.135,4.76,4.76v6.254c0,2.625-2.135,4.76-4.76,4.76H32.456z"/>
				
					<linearGradient id="SVGID_00000173876954146535732060000011484786773039403172_" gradientUnits="userSpaceOnUse" x1="37.331" y1="47.186" x2="65.3956" y2="77.6698">
					<stop  offset="0" style="stop-color:#3D4463"/>
					<stop  offset="1" style="stop-color:#1D253B"/>
				</linearGradient>
				<path style="fill:url(#SVGID_00000173876954146535732060000011484786773039403172_);" d="M66.517,67.777H32.456
					c-2.353,0-4.26-1.907-4.26-4.26v-6.254c0-2.353,1.907-4.26,4.26-4.26h34.061c2.353,0,4.26,1.907,4.26,4.26v6.254
					C70.777,65.869,68.87,67.777,66.517,67.777z"/>
				<text transform="matrix(1 0 0 1 37.9462 62.4984)" style="fill:#FFFFFF; font-family:'Roboto-Medium'; font-size:7px;">Normal</text>
			</g>
			<g>
				
					<linearGradient id="SVGID_00000122685330691206868320000009213353726381445029_" gradientUnits="userSpaceOnUse" x1="135.9815" y1="47.4713" x2="162.2074" y2="77.0842">
					<stop  offset="0" style="stop-color:#008FC7"/>
					<stop  offset="1" style="stop-color:#78DBAD"/>
				</linearGradient>
				<path style="fill:url(#SVGID_00000122685330691206868320000009213353726381445029_);" d="M164.453,67.777h-34.061
					c-2.353,0-4.26-1.907-4.26-4.26v-6.254c0-2.353,1.907-4.26,4.26-4.26h34.061c2.353,0,4.26,1.907,4.26,4.26v6.254
					C168.713,65.869,166.805,67.777,164.453,67.777z"/>
				<text transform="matrix(1 0 0 1 133.8104 62.4984)" style="fill:#FFFFFF; font-family:'Roboto-Medium'; font-size:7px;">Selected</text>
			</g>
			<g>
				<path style="fill:#6C77A1;" d="M115.485,68.027H81.424c-2.487,0-4.51-2.023-4.51-4.51v-6.254c0-2.487,2.023-4.51,4.51-4.51
					h34.061c2.487,0,4.51,2.024,4.51,4.51v6.254C119.995,66.003,117.972,68.027,115.485,68.027z M81.424,53.252
					c-2.211,0-4.01,1.799-4.01,4.01v6.254c0,2.211,1.799,4.01,4.01,4.01h34.061c2.211,0,4.01-1.799,4.01-4.01v-6.254
					c0-2.211-1.799-4.01-4.01-4.01H81.424z"/>
				<text transform="matrix(1 0 0 1 86.1278 62.4984)" style="fill:#6C77A1; font-family:'Roboto-Medium'; font-size:7px;">Inactive</text>
			</g>
			<g>
				
					<linearGradient id="SVGID_00000009554353438955946320000008025512233882265735_" gradientUnits="userSpaceOnUse" x1="184.9821" y1="47.4172" x2="207.5628" y2="73.0947">
					<stop  offset="0" style="stop-color:#78DBAD"/>
					<stop  offset="1" style="stop-color:#008FC7"/>
				</linearGradient>
				<path style="fill:url(#SVGID_00000009554353438955946320000008025512233882265735_);" d="M179.36,68.277
					c-2.625,0-4.76-2.135-4.76-4.76v-6.254c0-2.625,2.135-4.76,4.76-4.76h34.061c2.625,0,4.76,2.135,4.76,4.76v6.254
					c0,2.625-2.135,4.76-4.76,4.76H179.36z"/>
				
					<linearGradient id="SVGID_00000134225908404029329290000017580958530601312924_" gradientUnits="userSpaceOnUse" x1="184.2342" y1="47.186" x2="212.2988" y2="77.6698">
					<stop  offset="0" style="stop-color:#3D4463"/>
					<stop  offset="1" style="stop-color:#1D253B"/>
				</linearGradient>
				<path style="fill:url(#SVGID_00000134225908404029329290000017580958530601312924_);" d="M213.42,67.777H179.36
					c-2.353,0-4.26-1.907-4.26-4.26v-6.254c0-2.353,1.907-4.26,4.26-4.26h34.061c2.353,0,4.26,1.907,4.26,4.26v6.254
					C217.68,65.869,215.773,67.777,213.42,67.777z"/>
				<text transform="matrix(1 0 0 1 182.2039 62.4984)" style="fill:#FFFFFF; font-family:'Roboto-Medium'; font-size:7px;">Highlight</text>
			</g>
		</g>
		<g>
			<g>
				<path style="fill:#6C77A1;" d="M32.456,94.922c-2.625,0-4.76-2.135-4.76-4.76v-6.254c0-2.625,2.135-4.76,4.76-4.76h34.061
					c2.625,0,4.76,2.135,4.76,4.76v6.254c0,2.625-2.135,4.76-4.76,4.76H32.456z"/>
				
					<linearGradient id="SVGID_00000163792757449965925020000017298853011151465603_" gradientUnits="userSpaceOnUse" x1="37.331" y1="73.831" x2="65.3956" y2="104.3148">
					<stop  offset="0" style="stop-color:#3D4463"/>
					<stop  offset="1" style="stop-color:#1D253B"/>
				</linearGradient>
				<path style="fill:url(#SVGID_00000163792757449965925020000017298853011151465603_);" d="M66.517,94.422H32.456
					c-2.353,0-4.26-1.907-4.26-4.26v-6.254c0-2.353,1.907-4.26,4.26-4.26h34.061c2.353,0,4.26,1.907,4.26,4.26v6.254
					C70.777,92.515,68.87,94.422,66.517,94.422z"/>
				<text transform="matrix(1 0 0 1 37.9462 89.1434)" style="fill:#FFFFFF; font-family:'Roboto-Medium'; font-size:7px;">Normal</text>
			</g>
			<g>
				
					<linearGradient id="SVGID_00000152975241101629794680000016054475683939350432_" gradientUnits="userSpaceOnUse" x1="135.9815" y1="74.1163" x2="162.2074" y2="103.7292">
					<stop  offset="0" style="stop-color:#9780FA"/>
					<stop  offset="1" style="stop-color:#6440FA"/>
				</linearGradient>
				<path style="fill:url(#SVGID_00000152975241101629794680000016054475683939350432_);" d="M164.453,94.422h-34.061
					c-2.353,0-4.26-1.907-4.26-4.26v-6.254c0-2.353,1.907-4.26,4.26-4.26h34.061c2.353,0,4.26,1.907,4.26,4.26v6.254
					C168.713,92.515,166.805,94.422,164.453,94.422z"/>
				<text transform="matrix(1 0 0 1 133.8104 89.1434)" style="fill:#FFFFFF; font-family:'Roboto-Medium'; font-size:7px;">Selected</text>
			</g>
			<g>
				<path style="fill:#6C77A1;" d="M115.485,94.672H81.424c-2.487,0-4.51-2.023-4.51-4.51v-6.254c0-2.487,2.023-4.51,4.51-4.51
					h34.061c2.487,0,4.51,2.023,4.51,4.51v6.254C119.995,92.648,117.972,94.672,115.485,94.672z M81.424,79.897
					c-2.211,0-4.01,1.799-4.01,4.01v6.254c0,2.211,1.799,4.01,4.01,4.01h34.061c2.211,0,4.01-1.799,4.01-4.01v-6.254
					c0-2.211-1.799-4.01-4.01-4.01H81.424z"/>
				<text transform="matrix(1 0 0 1 86.1278 89.1434)" style="fill:#6C77A1; font-family:'Roboto-Medium'; font-size:7px;">Inactive</text>
			</g>
			<g>
				
					<linearGradient id="SVGID_00000014635157359357876280000018080282287214921402_" gradientUnits="userSpaceOnUse" x1="184.9821" y1="74.0623" x2="207.5628" y2="99.7397">
					<stop  offset="0" style="stop-color:#9780FA"/>
					<stop  offset="1" style="stop-color:#6440FA"/>
				</linearGradient>
				<path style="fill:url(#SVGID_00000014635157359357876280000018080282287214921402_);" d="M179.36,94.922
					c-2.625,0-4.76-2.135-4.76-4.76v-6.254c0-2.625,2.135-4.76,4.76-4.76h34.061c2.625,0,4.76,2.135,4.76,4.76v6.254
					c0,2.625-2.135,4.76-4.76,4.76H179.36z"/>
				
					<linearGradient id="SVGID_00000080165905720471872260000009166613330690878131_" gradientUnits="userSpaceOnUse" x1="184.2342" y1="73.831" x2="212.2988" y2="104.3148">
					<stop  offset="0" style="stop-color:#3D4463"/>
					<stop  offset="1" style="stop-color:#1D253B"/>
				</linearGradient>
				<path style="fill:url(#SVGID_00000080165905720471872260000009166613330690878131_);" d="M213.42,94.422H179.36
					c-2.353,0-4.26-1.907-4.26-4.26v-6.254c0-2.353,1.907-4.26,4.26-4.26h34.061c2.353,0,4.26,1.907,4.26,4.26v6.254
					C217.68,92.515,215.773,94.422,213.42,94.422z"/>
				<text transform="matrix(1 0 0 1 182.2039 89.1434)" style="fill:#FFFFFF; font-family:'Roboto-Medium'; font-size:7px;">Highlight</text>
			</g>
		</g>
	</g>
	<g>
		<g>
			<path style="fill:#6C77A1;" d="M32.456,198.469c-2.625,0-4.76-2.135-4.76-4.76v-69.868c0-2.625,2.135-4.76,4.76-4.76H213.26
				c2.625,0,4.76,2.135,4.76,4.76v69.868c0,2.624-2.135,4.76-4.76,4.76H32.456z"/>
			
				<linearGradient id="SVGID_00000127018610951716033450000017248701060648745659_" gradientUnits="userSpaceOnUse" x1="66.7956" y1="95.0236" x2="177.7655" y2="221.2122">
				<stop  offset="0" style="stop-color:#3D4463"/>
				<stop  offset="1" style="stop-color:#1D253B"/>
			</linearGradient>
			<path style="fill:url(#SVGID_00000127018610951716033450000017248701060648745659_);" d="M213.26,197.969H32.456
				c-2.353,0-4.26-1.907-4.26-4.26v-69.868c0-2.353,1.907-4.26,4.26-4.26H213.26c2.353,0,4.26,1.907,4.26,4.26v69.868
				C217.52,196.062,215.613,197.969,213.26,197.969z"/>
		</g>
		<g>
			<g>
				<g>
					
						<linearGradient id="SVGID_00000013176854412225197780000014875503195083462842_" gradientUnits="userSpaceOnUse" x1="165.5348" y1="136.5815" x2="200.8897" y2="188.9687">
						<stop  offset="0" style="stop-color:#9780FA"/>
						<stop  offset="1" style="stop-color:#6440FA"/>
					</linearGradient>
					<path style="fill:url(#SVGID_00000013176854412225197780000014875503195083462842_);" d="M179.765,178.603
						c-11.537,0-20.923-9.386-20.923-20.923c0-11.538,9.386-20.924,20.923-20.924c1.793,0,3.573,0.227,5.292,0.675
						c0.401,0.105,0.641,0.514,0.537,0.915c-0.105,0.4-0.515,0.642-0.915,0.537c-1.596-0.416-3.249-0.626-4.914-0.626
						c-10.71,0-19.423,8.713-19.423,19.424c0,10.71,8.713,19.423,19.423,19.423c10.711,0,19.424-8.713,19.424-19.423
						c0-5.244-2.058-10.16-5.795-13.84c-0.295-0.29-0.299-0.765-0.008-1.061c0.291-0.295,0.765-0.299,1.061-0.008
						c4.025,3.965,6.243,9.259,6.243,14.909C200.688,169.216,191.302,178.603,179.765,178.603z"/>
				</g>
				<g>
					<g>
						
							<linearGradient id="SVGID_00000166645311538941326620000017970968816143549334_" gradientUnits="userSpaceOnUse" x1="167.7039" y1="135.1176" x2="203.0588" y2="187.5047">
							<stop  offset="0" style="stop-color:#9780FA"/>
							<stop  offset="1" style="stop-color:#6440FA"/>
						</linearGradient>
						<path style="fill:url(#SVGID_00000166645311538941326620000017970968816143549334_);" d="M179.72,164.475
							c-0.414,0-0.75-0.336-0.75-0.75v-5.758c0-0.414,0.336-0.75,0.75-0.75c2.733-0.014,4.936-2.228,4.936-4.936
							c0-2.722-2.214-4.936-4.936-4.936c-1.43,0-2.788,0.619-3.727,1.699c-0.271,0.312-0.746,0.346-1.058,0.074
							c-0.312-0.271-0.346-0.745-0.074-1.058c1.224-1.408,2.995-2.215,4.858-2.215c3.549,0,6.436,2.887,6.436,6.436
							c0,3.289-2.492,6.019-5.686,6.393v5.051C180.47,164.139,180.134,164.475,179.72,164.475z"/>
					</g>
					<g>
						
							<linearGradient id="SVGID_00000113326701579024264050000009921958162386391940_" gradientUnits="userSpaceOnUse" x1="160.7818" y1="139.7893" x2="196.1366" y2="192.1763">
							<stop  offset="0" style="stop-color:#9780FA"/>
							<stop  offset="1" style="stop-color:#6440FA"/>
						</linearGradient>
						
							<circle style="fill:url(#SVGID_00000113326701579024264050000009921958162386391940_);" cx="179.765" cy="167.917" r="0.909"/>
					</g>
				</g>
			</g>
		</g>
		<g>
			<g>
				<text transform="matrix(1 0 0 1 38.1452 138.6435)" style="fill:#FFFFFF; font-family:'Roboto-Bold'; font-size:12px;">Lorem Ipsum</text>
			</g>
			<g>
				<rect x="38.145" y="148.29" style="fill:none;" width="110.309" height="18.778"/>
				<text transform="matrix(1 0 0 1 38.1456 154.2902)"><tspan x="0" y="0" style="fill:#6C77A1; font-family:'Roboto-Medium'; font-size:8px;">Lorem ipsum dolor sit amet, </tspan><tspan x="0" y="10" style="fill:#6C77A1; font-family:'Roboto-Medium'; font-size:8px;">consectetuer adipiscing.</tspan></text>
			</g>
		</g>
		<g>
			
				<linearGradient id="SVGID_00000158024208647792213970000005456551570380744893_" gradientUnits="userSpaceOnUse" x1="45.4377" y1="169.6559" x2="72.9297" y2="192.7007">
				<stop  offset="0" style="stop-color:#008FC7"/>
				<stop  offset="1" style="stop-color:#78DBAD"/>
			</linearGradient>
			<path style="fill:url(#SVGID_00000158024208647792213970000005456551570380744893_);" d="M78.566,188.777H40.305
				c-1.193,0-2.16-0.967-2.16-2.16v-10.454c0-1.193,0.967-2.16,2.16-2.16h38.261c1.193,0,2.16,0.967,2.16,2.16v10.454
				C80.726,187.81,79.759,188.777,78.566,188.777z"/>
			<text transform="matrix(1 0 0 1 45.8239 183.4984)" style="fill:#FFFFFF; font-family:'Roboto-Medium'; font-size:7px;">Selected</text>
		</g>
	</g>
	<g>
		<g>
			<path style="fill:#6C77A1;" d="M228.342,235.712H30.406c-1.22,0-2.21-0.989-2.21-2.21l0,0c0-1.22,0.989-2.21,2.21-2.21h197.935
				c1.22,0,2.21,0.989,2.21,2.21l0,0C230.551,234.723,229.562,235.712,228.342,235.712z"/>
			
				<linearGradient id="SVGID_00000005968331385255878530000005057581898642268551_" gradientUnits="userSpaceOnUse" x1="159.2932" y1="233.5027" x2="28.8111" y2="233.5027">
				<stop  offset="0" style="stop-color:#78DBAD"/>
				<stop  offset="1" style="stop-color:#008FC7"/>
			</linearGradient>
			<path style="fill:url(#SVGID_00000005968331385255878530000005057581898642268551_);" d="M157.342,235.712H30.406
				c-1.22,0-2.21-0.989-2.21-2.21l0,0c0-1.22,0.989-2.21,2.21-2.21h126.935c1.22,0,2.21,0.989,2.21,2.21l0,0
				C159.551,234.723,158.562,235.712,157.342,235.712z"/>
		</g>
		<g>
			<g>
				<text transform="matrix(1 0 0 1 29.2425 225.4563)" style="fill:#FFFFFF; font-family:'Roboto-Medium'; font-size:8px;">Loading...</text>
			</g>
			<g>
				<text transform="matrix(1 0 0 1 70.4682 225.4561)" style="fill:#FFFFFF; font-family:'Roboto-Medium'; font-size:10px;">72%</text>
			</g>
		</g>
	</g>
	<g>
		<g>
			<path style="fill:#6C77A1;" d="M228.342,268.369H100.213c-1.22,0-2.21-0.989-2.21-2.21l0,0c0-1.22,0.989-2.21,2.21-2.21h128.129
				c1.22,0,2.21,0.989,2.21,2.21l0,0C230.551,267.38,229.562,268.369,228.342,268.369z"/>
			
				<linearGradient id="SVGID_00000050642429466636770350000013743499883309487240_" gradientUnits="userSpaceOnUse" x1="176.3255" y1="266.1594" x2="97.5448" y2="266.1594">
				<stop  offset="0" style="stop-color:#9780FA"/>
				<stop  offset="1" style="stop-color:#6440FA"/>
			</linearGradient>
			<path style="fill:url(#SVGID_00000050642429466636770350000013743499883309487240_);" d="M173.987,268.369h-73.774
				c-1.22,0-2.21-0.989-2.21-2.21l0,0c0-1.22,0.989-2.21,2.21-2.21h73.774c1.22,0,2.21,0.989,2.21,2.21l0,0
				C176.196,267.38,175.207,268.369,173.987,268.369z"/>
		</g>
		<g>
			<text transform="matrix(1 0 0 1 27.5616 268.3691)" style="fill:#FFFFFF; font-family:'Roboto-Medium'; font-size:8px;">Lorem ipsum sit</text>
		</g>
		<g>
			
				<linearGradient id="SVGID_00000149371802232971838020000012924432836706059904_" gradientUnits="userSpaceOnUse" x1="169.9384" y1="257.8587" x2="183.8739" y2="276.3426">
				<stop  offset="0" style="stop-color:#FFFFFF"/>
				<stop  offset="1" style="stop-color:#CCCFD1"/>
			</linearGradient>
			<circle style="fill:url(#SVGID_00000149371802232971838020000012924432836706059904_);" cx="176.196" cy="266.159" r="6.617"/>
			
				<linearGradient id="SVGID_00000132086617439453068460000005618107152959131038_" gradientUnits="userSpaceOnUse" x1="174.0652" y1="263.1095" x2="179.6781" y2="271.1418">
				<stop  offset="0" style="stop-color:#9780FA"/>
				<stop  offset="1" style="stop-color:#6440FA"/>
			</linearGradient>
			<circle style="fill:url(#SVGID_00000132086617439453068460000005618107152959131038_);" cx="176.196" cy="266.159" r="4.175"/>
		</g>
	</g>
	<g>
		
			<linearGradient id="SVGID_00000136409799079362896870000014089107887352061597_" gradientUnits="userSpaceOnUse" x1="263.1949" y1="74.1996" x2="244.4747" y2="74.1996" gradientTransform="matrix(1 0 0 -1 0 109.4846)">
			<stop  offset="0" style="stop-color:#78DBAD"/>
			<stop  offset="1" style="stop-color:#008FC7"/>
		</linearGradient>
		<path style="fill:url(#SVGID_00000136409799079362896870000014089107887352061597_);" d="M254.363,41.887l4.113,2.162
			c0.771,0.405,1.672-0.249,1.525-1.108l-0.786-4.58c-0.059-0.341,0.055-0.689,0.302-0.93l3.328-3.243
			c0.624-0.608,0.28-1.668-0.583-1.793l-4.599-0.668c-0.342-0.05-0.638-0.265-0.792-0.575l-2.056-4.167
			c-0.386-0.781-1.5-0.781-1.885,0l-2.057,4.167c-0.153,0.31-0.449,0.525-0.791,0.575l-4.599,0.668
			c-0.862,0.125-1.206,1.185-0.583,1.793l3.327,3.243c0.248,0.242,0.361,0.589,0.302,0.93l-0.786,4.58
			c-0.147,0.859,0.754,1.514,1.525,1.108l4.113-2.162C253.691,41.726,254.057,41.726,254.363,41.887z"/>
		
			<linearGradient id="SVGID_00000047773412098901660060000017333288655572834736_" gradientUnits="userSpaceOnUse" x1="289.3239" y1="74.1996" x2="270.6037" y2="74.1996" gradientTransform="matrix(1 0 0 -1 0 109.4846)">
			<stop  offset="0" style="stop-color:#78DBAD"/>
			<stop  offset="1" style="stop-color:#008FC7"/>
		</linearGradient>
		<path style="fill:url(#SVGID_00000047773412098901660060000017333288655572834736_);" d="M280.492,41.887l4.113,2.162
			c0.771,0.405,1.673-0.249,1.525-1.108l-0.786-4.58c-0.059-0.341,0.055-0.689,0.302-0.93l3.328-3.243
			c0.624-0.608,0.28-1.668-0.583-1.793l-4.599-0.668c-0.342-0.05-0.638-0.265-0.792-0.575l-2.056-4.167
			c-0.386-0.781-1.5-0.781-1.885,0l-2.057,4.167c-0.153,0.31-0.449,0.525-0.792,0.575l-4.598,0.668
			c-0.862,0.125-1.207,1.185-0.583,1.793l3.328,3.243c0.248,0.242,0.361,0.589,0.302,0.93l-0.786,4.58
			c-0.147,0.859,0.754,1.514,1.525,1.108l4.113-2.162C279.82,41.726,280.186,41.726,280.492,41.887z"/>
		
			<linearGradient id="SVGID_00000024001860536191500470000013019588044663067307_" gradientUnits="userSpaceOnUse" x1="315.4529" y1="74.1996" x2="296.7328" y2="74.1996" gradientTransform="matrix(1 0 0 -1 0 109.4846)">
			<stop  offset="0" style="stop-color:#78DBAD"/>
			<stop  offset="1" style="stop-color:#008FC7"/>
		</linearGradient>
		<path style="fill:url(#SVGID_00000024001860536191500470000013019588044663067307_);" d="M306.621,41.887l4.113,2.162
			c0.771,0.405,1.672-0.249,1.525-1.108l-0.786-4.58c-0.059-0.341,0.055-0.689,0.302-0.93l3.328-3.243
			c0.624-0.608,0.28-1.668-0.583-1.793l-4.599-0.668c-0.342-0.05-0.638-0.265-0.791-0.575l-2.057-4.167
			c-0.385-0.781-1.5-0.781-1.885,0l-2.057,4.167c-0.153,0.31-0.449,0.525-0.792,0.575l-4.598,0.668
			c-0.862,0.125-1.207,1.185-0.583,1.793l3.328,3.243c0.248,0.242,0.361,0.589,0.302,0.93l-0.786,4.58
			c-0.147,0.859,0.754,1.514,1.525,1.108l4.113-2.162C305.949,41.726,306.315,41.726,306.621,41.887z"/>
		
			<linearGradient id="SVGID_00000159471199505126529990000005657577635614648988_" gradientUnits="userSpaceOnUse" x1="341.582" y1="74.1996" x2="322.8618" y2="74.1996" gradientTransform="matrix(1 0 0 -1 0 109.4846)">
			<stop  offset="0" style="stop-color:#9780FA"/>
			<stop  offset="1" style="stop-color:#6440FA"/>
		</linearGradient>
		<path style="fill:url(#SVGID_00000159471199505126529990000005657577635614648988_);" d="M332.75,41.887l4.113,2.162
			c0.771,0.405,1.672-0.249,1.525-1.108l-0.786-4.58c-0.058-0.341,0.055-0.689,0.302-0.93l3.327-3.243
			c0.624-0.608,0.28-1.668-0.583-1.793l-4.598-0.668c-0.342-0.05-0.638-0.265-0.792-0.575l-2.057-4.167
			c-0.386-0.781-1.5-0.781-1.885,0l-2.056,4.167c-0.153,0.31-0.449,0.525-0.792,0.575l-4.599,0.668
			c-0.862,0.125-1.207,1.185-0.583,1.793l3.328,3.243c0.248,0.242,0.361,0.589,0.302,0.93l-0.786,4.58
			c-0.147,0.859,0.754,1.514,1.525,1.108l4.113-2.162C332.078,41.726,332.444,41.726,332.75,41.887z"/>
		<path style="fill:#6C77A1;" d="M358.879,41.887l4.113,2.162c0.771,0.405,1.673-0.249,1.525-1.108l-0.785-4.58
			c-0.059-0.341,0.055-0.689,0.302-0.93l3.327-3.243c0.624-0.608,0.28-1.668-0.583-1.793l-4.598-0.668
			c-0.342-0.05-0.638-0.265-0.792-0.575l-2.056-4.167c-0.386-0.781-1.5-0.781-1.885,0l-2.056,4.167
			c-0.153,0.31-0.449,0.525-0.792,0.575l-4.599,0.668c-0.862,0.125-1.206,1.185-0.583,1.793l3.328,3.243
			c0.248,0.242,0.361,0.589,0.302,0.93l-0.786,4.58c-0.147,0.859,0.754,1.514,1.525,1.108l4.113-2.162
			C358.207,41.726,358.573,41.726,358.879,41.887z"/>
	</g>
	<g>
		<g>
			<g>
				<path style="fill:#6C77A1;" d="M248.844,84.664c-2.625,0-4.76-2.135-4.76-4.76V62.101c0-2.625,2.135-4.76,4.76-4.76h117.544
					c2.625,0,4.761,2.135,4.761,4.76v17.803c0,2.625-2.136,4.76-4.761,4.76H248.844z"/>
				
					<linearGradient id="SVGID_00000070804804157835872810000005871696141817049744_" gradientUnits="userSpaceOnUse" x1="252.4552" y1="44.197" x2="344.3261" y2="88.8422">
					<stop  offset="0" style="stop-color:#3D4463"/>
					<stop  offset="1" style="stop-color:#1D253B"/>
				</linearGradient>
				<path style="fill:url(#SVGID_00000070804804157835872810000005871696141817049744_);" d="M366.388,84.164H248.844
					c-2.353,0-4.26-1.907-4.26-4.26V62.101c0-2.353,1.907-4.26,4.26-4.26h117.544c2.353,0,4.26,1.907,4.26,4.26v17.803
					C370.648,82.257,368.741,84.164,366.388,84.164z"/>
				
					<linearGradient id="SVGID_00000111896605768000685680000000664892696978740099_" gradientUnits="userSpaceOnUse" x1="333.8739" y1="71.0027" x2="371.1484" y2="71.0027">
					<stop  offset="0" style="stop-color:#78DBAD"/>
					<stop  offset="1" style="stop-color:#008FC7"/>
				</linearGradient>
				<path style="fill:url(#SVGID_00000111896605768000685680000000664892696978740099_);" d="M366.388,57.341h-32.514v27.323h32.514
					c2.625,0,4.761-2.135,4.761-4.76V62.101C371.148,59.477,369.013,57.341,366.388,57.341z"/>
			</g>
			<g>
				
					<linearGradient id="SVGID_00000098200217276311756510000016881743681174723512_" gradientUnits="userSpaceOnUse" x1="344.2359" y1="57.2797" x2="360.7521" y2="83.7313">
					<stop  offset="0" style="stop-color:#FFFFFF"/>
					<stop  offset="1" style="stop-color:#CCCFD1"/>
				</linearGradient>
				<path style="fill:url(#SVGID_00000098200217276311756510000016881743681174723512_);" d="M358.283,77.089l-3.877-5.063
					c0.361-0.327,0.687-0.697,0.936-1.131c0.62-1.084,0.783-2.345,0.454-3.549c-0.326-1.206-1.102-2.211-2.186-2.833
					c-1.082-0.621-2.333-0.783-3.549-0.455c-2.488,0.676-3.964,3.249-3.288,5.738c0.639,2.345,2.964,3.791,5.314,3.381
					c0.141-0.024,0.283-0.055,0.424-0.094c0.297-0.08,0.582-0.189,0.852-0.323l3.909,5.104c0.15,0.195,0.39,0.281,0.616,0.242
					c0.099-0.017,0.194-0.058,0.279-0.123C358.445,77.768,358.497,77.368,358.283,77.089z M352.174,71.852
					c-1.786,0.476-3.68-0.582-4.173-2.391c-0.49-1.809,0.584-3.682,2.394-4.174c0.102-0.027,0.207-0.051,0.31-0.069
					c0.78-0.136,1.574,0.003,2.268,0.401c0.788,0.452,1.354,1.183,1.591,2.059l0,0.001c0.238,0.876,0.121,1.792-0.33,2.581
					C353.782,71.049,353.053,71.613,352.174,71.852z"/>
				<text transform="matrix(1 0 0 1 253.8738 74.0771)" style="fill:#FFFFFF; font-family:'Roboto-Bold'; font-size:10px;">Search...</text>
			</g>
		</g>
		<g>
			<g>
				<path style="fill:#6C77A1;" d="M248.844,124.341c-2.625,0-4.76-2.135-4.76-4.76v-17.803c0-2.625,2.135-4.76,4.76-4.76h117.544
					c2.625,0,4.761,2.135,4.761,4.76v17.803c0,2.625-2.136,4.76-4.761,4.76H248.844z"/>
				
					<linearGradient id="SVGID_00000017492367020037904500000001696456864165493399_" gradientUnits="userSpaceOnUse" x1="252.4552" y1="83.8744" x2="344.3261" y2="128.5196">
					<stop  offset="0" style="stop-color:#3D4463"/>
					<stop  offset="1" style="stop-color:#1D253B"/>
				</linearGradient>
				<path style="fill:url(#SVGID_00000017492367020037904500000001696456864165493399_);" d="M366.388,123.841H248.844
					c-2.353,0-4.26-1.907-4.26-4.26v-17.803c0-2.353,1.907-4.26,4.26-4.26h117.544c2.353,0,4.26,1.907,4.26,4.26v17.803
					C370.648,121.934,368.741,123.841,366.388,123.841z"/>
				
					<linearGradient id="SVGID_00000124160600715172689220000008037467000775661191_" gradientUnits="userSpaceOnUse" x1="333.8739" y1="110.6801" x2="371.1484" y2="110.6801">
					<stop  offset="0" style="stop-color:#9780FA"/>
					<stop  offset="1" style="stop-color:#6440FA"/>
				</linearGradient>
				<path style="fill:url(#SVGID_00000124160600715172689220000008037467000775661191_);" d="M366.388,97.019h-32.514v27.323h32.514
					c2.625,0,4.761-2.135,4.761-4.76v-17.803C371.148,99.154,369.013,97.019,366.388,97.019z"/>
			</g>
			<g>
				
					<linearGradient id="SVGID_00000030465090641523303310000004765134579651427511_" gradientUnits="userSpaceOnUse" x1="344.2359" y1="96.9571" x2="360.7521" y2="123.4087">
					<stop  offset="0" style="stop-color:#FFFFFF"/>
					<stop  offset="1" style="stop-color:#CCCFD1"/>
				</linearGradient>
				<path style="fill:url(#SVGID_00000030465090641523303310000004765134579651427511_);" d="M358.283,116.766l-3.877-5.063
					c0.361-0.327,0.687-0.697,0.936-1.131c0.62-1.084,0.783-2.345,0.454-3.549c-0.326-1.206-1.102-2.211-2.186-2.833
					c-1.082-0.621-2.333-0.784-3.549-0.455c-2.488,0.676-3.964,3.249-3.288,5.738c0.639,2.345,2.964,3.791,5.314,3.381
					c0.141-0.024,0.283-0.055,0.424-0.094c0.297-0.08,0.582-0.189,0.852-0.323l3.909,5.104c0.15,0.195,0.39,0.281,0.616,0.242
					c0.099-0.017,0.194-0.058,0.279-0.123C358.445,117.445,358.497,117.045,358.283,116.766z M352.174,111.529
					c-1.786,0.476-3.68-0.582-4.173-2.391c-0.49-1.809,0.584-3.682,2.394-4.174c0.102-0.027,0.207-0.051,0.31-0.069
					c0.78-0.136,1.574,0.003,2.268,0.401c0.788,0.452,1.354,1.183,1.591,2.059l0,0.001c0.238,0.876,0.121,1.792-0.33,2.581
					C353.782,110.726,353.053,111.29,352.174,111.529z"/>
				<text transform="matrix(1 0 0 1 253.8738 113.7545)" style="fill:#FFFFFF; font-family:'Roboto-Bold'; font-size:10px;">Search...</text>
			</g>
		</g>
	</g>
	<g>
		<g>
			<g>
				<path style="fill:#6C77A1;" d="M369.15,155.962H246.082c-0.828,0-1.498-0.671-1.498-1.498l0,0c0-0.827,0.671-1.498,1.498-1.498
					H369.15c0.828,0,1.498,0.671,1.498,1.498l0,0C370.648,155.291,369.977,155.962,369.15,155.962z"/>
				
					<linearGradient id="SVGID_00000137817356193160435430000001949576836425165441_" gradientUnits="userSpaceOnUse" x1="335.8417" y1="154.4634" x2="280.4869" y2="154.4634">
					<stop  offset="0" style="stop-color:#78DBAD"/>
					<stop  offset="1" style="stop-color:#008FC7"/>
				</linearGradient>
				
					<rect x="280.326" y="152.965" style="fill:url(#SVGID_00000137817356193160435430000001949576836425165441_);" width="55.355" height="2.997"/>
			</g>
			<g>
				<g>
					
						<linearGradient id="SVGID_00000007399805125735501010000013025447250408348828_" gradientUnits="userSpaceOnUse" x1="278.2649" y1="149.8045" x2="282.7165" y2="159.869">
						<stop  offset="0" style="stop-color:#FFFFFF"/>
						<stop  offset="1" style="stop-color:#CCCFD1"/>
					</linearGradient>
					<path style="fill:url(#SVGID_00000007399805125735501010000013025447250408348828_);" d="M285.372,154.463
						c0,2.787-2.259,5.046-5.046,5.046c-2.787,0-5.046-2.259-5.046-5.046c0-2.787,2.259-5.046,5.046-5.046
						C283.112,149.417,285.372,151.676,285.372,154.463z"/>
					
						<linearGradient id="SVGID_00000139272162555601093000000007184086849308485512_" gradientUnits="userSpaceOnUse" x1="278.3674" y1="149.6694" x2="282.1093" y2="158.8307">
						<stop  offset="0" style="stop-color:#78DBAD"/>
						<stop  offset="1" style="stop-color:#008FC7"/>
					</linearGradient>
					<path style="fill:url(#SVGID_00000139272162555601093000000007184086849308485512_);" d="M283.894,154.463
						c0,1.971-1.598,3.568-3.568,3.568c-1.971,0-3.568-1.598-3.568-3.568c0-1.971,1.598-3.568,3.568-3.568
						C282.296,150.895,283.894,152.493,283.894,154.463z"/>
				</g>
				<g>
					<text transform="matrix(1 0 0 1 273.7767 146.2554)" style="fill:#FFFFFF; font-family:'Roboto-Medium'; font-size:7px;">25%</text>
				</g>
			</g>
			<g>
				<g>
					
						<linearGradient id="SVGID_00000132073928758922033250000012706493599897146777_" gradientUnits="userSpaceOnUse" x1="333.6197" y1="149.8046" x2="338.0713" y2="159.869">
						<stop  offset="0" style="stop-color:#FFFFFF"/>
						<stop  offset="1" style="stop-color:#CCCFD1"/>
					</linearGradient>
					<path style="fill:url(#SVGID_00000132073928758922033250000012706493599897146777_);" d="M340.727,154.463
						c0,2.787-2.259,5.046-5.046,5.046s-5.046-2.259-5.046-5.046c0-2.787,2.259-5.046,5.046-5.046S340.727,151.676,340.727,154.463z
						"/>
					
						<linearGradient id="SVGID_00000083782596959514199690000015600245596396237696_" gradientUnits="userSpaceOnUse" x1="333.7222" y1="149.6694" x2="337.4642" y2="158.8307">
						<stop  offset="0" style="stop-color:#78DBAD"/>
						<stop  offset="1" style="stop-color:#008FC7"/>
					</linearGradient>
					<path style="fill:url(#SVGID_00000083782596959514199690000015600245596396237696_);" d="M339.249,154.463
						c0,1.971-1.598,3.568-3.568,3.568s-3.568-1.598-3.568-3.568c0-1.971,1.598-3.568,3.568-3.568S339.249,152.493,339.249,154.463z
						"/>
				</g>
				<g>
					<text transform="matrix(1 0 0 1 329.1316 146.2554)" style="fill:#FFFFFF; font-family:'Roboto-Medium'; font-size:7px;">69%</text>
				</g>
			</g>
		</g>
		<g>
			<g>
				<path style="fill:#6C77A1;" d="M369.15,186.031H246.082c-0.828,0-1.498-0.671-1.498-1.498l0,0c0-0.827,0.671-1.498,1.498-1.498
					H369.15c0.828,0,1.498,0.671,1.498,1.498l0,0C370.648,185.361,369.977,186.031,369.15,186.031z"/>
				
					<linearGradient id="SVGID_00000052793825996523773650000015261262224928659090_" gradientUnits="userSpaceOnUse" x1="309.869" y1="184.533" x2="267.2884" y2="184.533">
					<stop  offset="0" style="stop-color:#9780FA"/>
					<stop  offset="1" style="stop-color:#6440FA"/>
				</linearGradient>
				
					<rect x="267.164" y="183.035" style="fill:url(#SVGID_00000052793825996523773650000015261262224928659090_);" width="42.581" height="2.997"/>
			</g>
			<g>
				<g>
					
						<linearGradient id="SVGID_00000120519632302812283050000003767342934011782528_" gradientUnits="userSpaceOnUse" x1="265.1036" y1="179.8741" x2="269.5552" y2="189.9386">
						<stop  offset="0" style="stop-color:#FFFFFF"/>
						<stop  offset="1" style="stop-color:#CCCFD1"/>
					</linearGradient>
					<path style="fill:url(#SVGID_00000120519632302812283050000003767342934011782528_);" d="M272.21,184.533
						c0,2.787-2.259,5.046-5.046,5.046c-2.787,0-5.046-2.259-5.046-5.046s2.259-5.046,5.046-5.046
						C269.951,179.487,272.21,181.746,272.21,184.533z"/>
					
						<linearGradient id="SVGID_00000005252754052911977130000003000582797533745321_" gradientUnits="userSpaceOnUse" x1="265.2061" y1="179.739" x2="268.9481" y2="188.9003">
						<stop  offset="0" style="stop-color:#9780FA"/>
						<stop  offset="1" style="stop-color:#6440FA"/>
					</linearGradient>
					<path style="fill:url(#SVGID_00000005252754052911977130000003000582797533745321_);" d="M270.732,184.533
						c0,1.971-1.598,3.568-3.568,3.568c-1.971,0-3.568-1.598-3.568-3.568c0-1.971,1.598-3.568,3.568-3.568
						C269.135,180.965,270.732,182.562,270.732,184.533z"/>
				</g>
				<g>
					<text transform="matrix(1 0 0 1 260.6154 176.325)" style="fill:#FFFFFF; font-family:'Roboto-Medium'; font-size:7px;">16%</text>
				</g>
			</g>
			<g>
				<g>
					
						<linearGradient id="SVGID_00000102544379235228509300000000882517598490558342_" gradientUnits="userSpaceOnUse" x1="307.6842" y1="179.8741" x2="312.1358" y2="189.9386">
						<stop  offset="0" style="stop-color:#FFFFFF"/>
						<stop  offset="1" style="stop-color:#CCCFD1"/>
					</linearGradient>
					<path style="fill:url(#SVGID_00000102544379235228509300000000882517598490558342_);" d="M314.791,184.533
						c0,2.787-2.259,5.046-5.046,5.046c-2.787,0-5.046-2.259-5.046-5.046s2.259-5.046,5.046-5.046
						C312.532,179.487,314.791,181.746,314.791,184.533z"/>
					
						<linearGradient id="SVGID_00000047768217593852915180000017744696630572576164_" gradientUnits="userSpaceOnUse" x1="307.7867" y1="179.739" x2="311.5287" y2="188.9003">
						<stop  offset="0" style="stop-color:#9780FA"/>
						<stop  offset="1" style="stop-color:#6440FA"/>
					</linearGradient>
					<path style="fill:url(#SVGID_00000047768217593852915180000017744696630572576164_);" d="M313.313,184.533
						c0,1.971-1.598,3.568-3.568,3.568c-1.971,0-3.568-1.598-3.568-3.568c0-1.971,1.598-3.568,3.568-3.568
						C311.716,180.965,313.313,182.562,313.313,184.533z"/>
				</g>
				<g>
					<text transform="matrix(1 0 0 1 303.1961 176.325)" style="fill:#FFFFFF; font-family:'Roboto-Medium'; font-size:7px;">52%</text>
				</g>
			</g>
		</g>
	</g>
	<g>
		<g>
			<path style="fill:#6C77A1;" d="M366.388,269.833H248.844c-2.353,0-4.26-1.907-4.26-4.26v-54.067c0-2.353,1.907-4.26,4.26-4.26
				h117.544c2.353,0,4.26,1.907,4.26,4.26v54.067C370.648,267.926,368.741,269.833,366.388,269.833z"/>
			<g>
				<text transform="matrix(1 0 0 1 250.9709 219.6623)" style="fill:#FFFFFF; font-family:'Roboto-Medium'; font-size:7px;">Enter your message...</text>
			</g>
		</g>
		<g>
			
				<linearGradient id="SVGID_00000134950447518929413860000015216094638134949038_" gradientUnits="userSpaceOnUse" x1="330.2845" y1="265.7775" x2="365.1233" y2="298.8098">
				<stop  offset="0" style="stop-color:#78DBAD"/>
				<stop  offset="1" style="stop-color:#008FC7"/>
			</linearGradient>
			<path style="fill:url(#SVGID_00000134950447518929413860000015216094638134949038_);" d="M329.728,291.275
				c-1.467,0-2.66-1.193-2.66-2.66v-10.454c0-1.467,1.193-2.66,2.66-2.66h38.261c1.466,0,2.659,1.193,2.659,2.66v10.454
				c0,1.467-1.193,2.66-2.659,2.66H329.728z"/>
			
				<linearGradient id="SVGID_00000039102076787802910140000004135907663694566291_" gradientUnits="userSpaceOnUse" x1="334.8654" y1="269.8583" x2="361.188" y2="295.3098">
				<stop  offset="0" style="stop-color:#3D4463"/>
				<stop  offset="1" style="stop-color:#1D253B"/>
			</linearGradient>
			<path style="fill:url(#SVGID_00000039102076787802910140000004135907663694566291_);" d="M367.988,290.775h-38.261
				c-1.193,0-2.16-0.967-2.16-2.16v-10.454c0-1.193,0.967-2.16,2.16-2.16h38.261c1.193,0,2.16,0.967,2.16,2.16v10.454
				C370.148,289.808,369.181,290.775,367.988,290.775z"/>
			<text transform="matrix(1 0 0 1 337.7277 285.4967)" style="fill:#FFFFFF; font-family:'Roboto-Medium'; font-size:7px;">Submit</text>
		</g>
		<g>
			<text transform="matrix(1 0 0 1 260.5169 285.4967)" style="fill:#6C77A1; font-family:'Roboto-Medium'; font-size:7px;">Mail notification</text>
			<g>
				<path style="fill:#6C77A1;" d="M320.578,286.525h-5.355c-0.138,0-0.25-0.112-0.25-0.25v-5.354c0-0.138,0.112-0.25,0.25-0.25
					h5.355c0.138,0,0.25,0.112,0.25,0.25v5.354C320.828,286.413,320.716,286.525,320.578,286.525z M315.473,286.025h4.855v-4.854
					h-4.855V286.025z"/>
				
					<linearGradient id="SVGID_00000009564871580232199360000011501177994112188344_" gradientUnits="userSpaceOnUse" x1="315.6553" y1="279.3434" x2="320.8166" y2="287.3434">
					<stop  offset="0" style="stop-color:#FFFFFF"/>
					<stop  offset="1" style="stop-color:#CCCFD1"/>
				</linearGradient>
				<path style="fill:url(#SVGID_00000009564871580232199360000011501177994112188344_);" d="M317.347,285.432
					c-0.106,0-0.207-0.045-0.278-0.124l-1.134-1.255c-0.139-0.153-0.127-0.391,0.027-0.529c0.154-0.138,0.39-0.127,0.53,0.027
					l0.842,0.932l2.137-2.607c0.132-0.161,0.368-0.185,0.528-0.053c0.16,0.131,0.184,0.367,0.052,0.527l-2.413,2.944
					c-0.069,0.085-0.172,0.135-0.281,0.138C317.353,285.432,317.35,285.432,317.347,285.432z"/>
			</g>
		</g>
	</g>
	<g>
		<g>
			<g>
				<text transform="matrix(1 0 0 1 397.45 182.469)" style="fill:#FFFFFF; font-family:'Roboto-Medium'; font-size:10px;">A</text>
			</g>
			<g>
				<path style="fill:#6C77A1;" d="M405.391,165.654h-9.228c-1.193,0-2.16-0.967-2.16-2.16V43.895c0-1.193,0.967-2.16,2.16-2.16
					h9.228c1.193,0,2.16,0.967,2.16,2.16v119.599C407.551,164.687,406.584,165.654,405.391,165.654z"/>
				
					<linearGradient id="SVGID_00000168119211688708658560000001050412933846269573_" gradientUnits="userSpaceOnUse" x1="400.7771" y1="81.0016" x2="400.7771" y2="164.287">
					<stop  offset="0" style="stop-color:#9780FA"/>
					<stop  offset="1" style="stop-color:#6440FA"/>
				</linearGradient>
				<path style="fill:url(#SVGID_00000168119211688708658560000001050412933846269573_);" d="M394.003,78.11v85.384
					c0,1.193,0.967,2.16,2.16,2.16h9.228c1.193,0,2.16-0.967,2.16-2.16V78.11H394.003z"/>
				
					<linearGradient id="SVGID_00000034789642244687383590000013266026055731048376_" gradientUnits="userSpaceOnUse" x1="400.7771" y1="118.4369" x2="400.7771" y2="164.8914">
					<stop  offset="0" style="stop-color:#78DBAD"/>
					<stop  offset="1" style="stop-color:#008FC7"/>
				</linearGradient>
				<path style="fill:url(#SVGID_00000034789642244687383590000013266026055731048376_);" d="M394.003,116.824v46.67
					c0,1.193,0.967,2.16,2.16,2.16h9.228c1.193,0,2.16-0.967,2.16-2.16v-46.67H394.003z"/>
			</g>
		</g>
		<g>
			<g>
				<text transform="matrix(1 0 0 1 428.3325 182.469)" style="fill:#FFFFFF; font-family:'Roboto-Medium'; font-size:10px;">B</text>
			</g>
			<g>
				<path style="fill:#6C77A1;" d="M436.101,165.654h-9.228c-1.193,0-2.16-0.967-2.16-2.16V43.895c0-1.193,0.967-2.16,2.16-2.16
					h9.228c1.193,0,2.16,0.967,2.16,2.16v119.599C438.261,164.687,437.294,165.654,436.101,165.654z"/>
				
					<linearGradient id="SVGID_00000116933692193321095440000004608769909495954090_" gradientUnits="userSpaceOnUse" x1="431.4868" y1="103.2833" x2="431.4868" y2="162.8685">
					<stop  offset="0" style="stop-color:#78DBAD"/>
					<stop  offset="1" style="stop-color:#008FC7"/>
				</linearGradient>
				<path style="fill:url(#SVGID_00000116933692193321095440000004608769909495954090_);" d="M424.713,105.534v57.96
					c0,1.193,0.967,2.16,2.16,2.16h9.228c1.193,0,2.16-0.967,2.16-2.16v-57.96H424.713z"/>
				
					<linearGradient id="SVGID_00000106856097672025987500000015023413043160890040_" gradientUnits="userSpaceOnUse" x1="431.4868" y1="120.2434" x2="431.4868" y2="163.6258">
					<stop  offset="0" style="stop-color:#9780FA"/>
					<stop  offset="1" style="stop-color:#6440FA"/>
				</linearGradient>
				<path style="fill:url(#SVGID_00000106856097672025987500000015023413043160890040_);" d="M424.713,121.882v41.612
					c0,1.193,0.967,2.16,2.16,2.16h9.228c1.193,0,2.16-0.967,2.16-2.16v-41.612H424.713z"/>
			</g>
		</g>
		<g>
			<g>
				<text transform="matrix(1 0 0 1 458.9319 182.469)" style="fill:#FFFFFF; font-family:'Roboto-Medium'; font-size:10px;">C</text>
			</g>
			<g>
				<path style="fill:#6C77A1;" d="M466.811,165.654h-9.228c-1.193,0-2.16-0.967-2.16-2.16V43.895c0-1.193,0.967-2.16,2.16-2.16
					h9.228c1.193,0,2.16,0.967,2.16,2.16v119.599C468.971,164.687,468.004,165.654,466.811,165.654z"/>
				
					<linearGradient id="SVGID_00000018944153634104256170000016651303832760833717_" gradientUnits="userSpaceOnUse" x1="462.1965" y1="61.5183" x2="462.1965" y2="161.0034">
					<stop  offset="0" style="stop-color:#9780FA"/>
					<stop  offset="1" style="stop-color:#6440FA"/>
				</linearGradient>
				<path style="fill:url(#SVGID_00000018944153634104256170000016651303832760833717_);" d="M455.422,65.276v98.218
					c0,1.193,0.967,2.16,2.16,2.16h9.228c1.193,0,2.16-0.967,2.16-2.16V65.276H455.422z"/>
				
					<linearGradient id="SVGID_00000011014962162492211250000005138056732776109443_" gradientUnits="userSpaceOnUse" x1="462.1965" y1="107.6185" x2="462.1965" y2="163.0621">
					<stop  offset="0" style="stop-color:#78DBAD"/>
					<stop  offset="1" style="stop-color:#008FC7"/>
				</linearGradient>
				<path style="fill:url(#SVGID_00000011014962162492211250000005138056732776109443_);" d="M455.422,109.712v53.781
					c0,1.193,0.967,2.16,2.16,2.16h9.228c1.193,0,2.16-0.967,2.16-2.16v-53.781H455.422z"/>
			</g>
		</g>
	</g>
	<g>
		<g>
			<g>
				<circle style="fill:#6C77A1;" cx="432.379" cy="234.003" r="39.742"/>
				<path style="opacity:0.45;fill:#6C77A1;" d="M432.38,271.745c-20.812,0-37.742-16.931-37.742-37.742
					c0-20.811,16.931-37.742,37.742-37.742c20.81,0,37.741,16.931,37.741,37.742C470.121,254.814,453.19,271.745,432.38,271.745z"/>
				
					<linearGradient id="SVGID_00000131350619946192197230000002269807360476193716_" gradientUnits="userSpaceOnUse" x1="414.5555" y1="204.501" x2="451.9748" y2="266.4365">
					<stop  offset="0" style="stop-color:#3D4463"/>
					<stop  offset="1" style="stop-color:#1D253B"/>
				</linearGradient>
				<path style="fill:url(#SVGID_00000131350619946192197230000002269807360476193716_);" d="M432.38,270.745
					c-20.26,0-36.742-16.482-36.742-36.742c0-20.259,16.482-36.742,36.742-36.742c20.259,0,36.741,16.482,36.741,36.742
					C469.121,254.262,452.639,270.745,432.38,270.745z"/>
			</g>
			<g>
				
					<linearGradient id="SVGID_00000043441182338910036720000005514095762204479884_" gradientUnits="userSpaceOnUse" x1="450.615" y1="212.9054" x2="457.0666" y2="226.8408">
					<stop  offset="0" style="stop-color:#FFFFFF"/>
					<stop  offset="1" style="stop-color:#CCCFD1"/>
				</linearGradient>
				<path style="fill:url(#SVGID_00000043441182338910036720000005514095762204479884_);" d="M452.96,223.245
					c-2.908,0-5.274-2.366-5.274-5.274s2.366-5.274,5.274-5.274c2.908,0,5.274,2.366,5.274,5.274S455.868,223.245,452.96,223.245z"
					/>
				
					<linearGradient id="SVGID_00000109723663056400899350000012453697966982439355_" gradientUnits="userSpaceOnUse" x1="450.7832" y1="213.1333" x2="454.9752" y2="222.4488">
					<stop  offset="0" style="stop-color:#78DBAD"/>
					<stop  offset="1" style="stop-color:#008FC7"/>
				</linearGradient>
				<circle style="fill:url(#SVGID_00000109723663056400899350000012453697966982439355_);" cx="452.96" cy="217.97" r="4.774"/>
			</g>
		</g>
		<g>
			<g>
				<text transform="matrix(1 0 0 1 390.8521 288.5142)" style="fill:#FFFFFF; font-family:'Roboto-Medium'; font-size:7px;">Lorem increased</text>
			</g>
			<g>
				<text transform="matrix(1 0 0 1 452.0134 289.1916)" style="fill:#FFFFFF; font-family:'Roboto-Bold'; font-size:10px;">69%</text>
			</g>
		</g>
	</g>
	<g>
		<g>
			
				<linearGradient id="SVGID_00000083089130577005161020000003978464293494771106_" gradientUnits="userSpaceOnUse" x1="64.0238" y1="313.7646" x2="28.1527" y2="313.7646">
				<stop  offset="0" style="stop-color:#78DBAD"/>
				<stop  offset="1" style="stop-color:#008FC7"/>
			</linearGradient>
			<path style="fill:url(#SVGID_00000083089130577005161020000003978464293494771106_);" d="M34.103,331.422
				c-2.625,0-4.76-2.135-4.76-4.76v-25.796c0-2.625,2.135-4.76,4.76-4.76h25.796c2.625,0,4.76,2.135,4.76,4.76v25.796
				c0,2.625-2.135,4.76-4.76,4.76H34.103z"/>
			
				<linearGradient id="SVGID_00000115477150194479027910000018092350896983329712_" gradientUnits="userSpaceOnUse" x1="29.8435" y1="313.7644" x2="64.1594" y2="313.7644">
				<stop  offset="0" style="stop-color:#3D4463"/>
				<stop  offset="1" style="stop-color:#1D253B"/>
			</linearGradient>
			<path style="fill:url(#SVGID_00000115477150194479027910000018092350896983329712_);" d="M59.899,330.922H34.103
				c-2.353,0-4.26-1.907-4.26-4.26v-25.796c0-2.353,1.907-4.26,4.26-4.26h25.796c2.353,0,4.26,1.907,4.26,4.26v25.796
				C64.159,329.015,62.252,330.922,59.899,330.922z"/>
			
				<linearGradient id="SVGID_00000156582739932779383550000012348569388300391814_" gradientUnits="userSpaceOnUse" x1="64.0238" y1="313.7646" x2="28.1528" y2="313.7646">
				<stop  offset="0" style="stop-color:#78DBAD"/>
				<stop  offset="1" style="stop-color:#008FC7"/>
			</linearGradient>
			<path style="fill:url(#SVGID_00000156582739932779383550000012348569388300391814_);" d="M52.824,312.881l-8.734-5.043
				c-0.681-0.393-1.531,0.098-1.531,0.884v10.085c0,0.786,0.85,1.277,1.531,0.884l8.734-5.043
				C53.505,314.256,53.505,313.274,52.824,312.881z"/>
		</g>
		<g>
			
				<linearGradient id="SVGID_00000157300636890838670020000011453339764907534728_" gradientUnits="userSpaceOnUse" x1="115.6332" y1="299.1996" x2="78.859" y2="327.4577">
				<stop  offset="0" style="stop-color:#78DBAD"/>
				<stop  offset="1" style="stop-color:#008FC7"/>
			</linearGradient>
			<path style="fill:url(#SVGID_00000157300636890838670020000011453339764907534728_);" d="M83.781,331.422
				c-2.625,0-4.76-2.135-4.76-4.76v-25.796c0-2.625,2.135-4.76,4.76-4.76h25.796c2.625,0,4.76,2.135,4.76,4.76v25.796
				c0,2.625-2.135,4.76-4.76,4.76H83.781z"/>
			
				<linearGradient id="SVGID_00000041975186974503820090000008294871656279933852_" gradientUnits="userSpaceOnUse" x1="104.3364" y1="305.2535" x2="86.3365" y2="321.318">
				<stop  offset="0" style="stop-color:#FFFFFF"/>
				<stop  offset="1" style="stop-color:#CCCFD1"/>
			</linearGradient>
			<path style="fill:url(#SVGID_00000041975186974503820090000008294871656279933852_);" d="M102.502,312.881l-8.734-5.043
				c-0.68-0.393-1.531,0.098-1.531,0.884v10.085c0,0.786,0.851,1.277,1.531,0.884l8.734-5.043
				C103.182,314.256,103.182,313.274,102.502,312.881z"/>
		</g>
	</g>
	<g>
		<g>
			
				<linearGradient id="SVGID_00000142167694732454784770000016950626500297717378_" gradientUnits="userSpaceOnUse" x1="169.0561" y1="313.7646" x2="132.5252" y2="313.7646">
				<stop  offset="0" style="stop-color:#9780FA"/>
				<stop  offset="1" style="stop-color:#6440FA"/>
			</linearGradient>
			<path style="fill:url(#SVGID_00000142167694732454784770000016950626500297717378_);" d="M138.352,331.422
				c-2.625,0-4.76-2.135-4.76-4.76v-25.796c0-2.625,2.135-4.76,4.76-4.76h25.796c2.624,0,4.76,2.135,4.76,4.76v25.796
				c0,2.625-2.135,4.76-4.76,4.76H138.352z"/>
			
				<linearGradient id="SVGID_00000166651761950143007920000010204976092508863386_" gradientUnits="userSpaceOnUse" x1="134.0918" y1="313.7644" x2="168.4078" y2="313.7644">
				<stop  offset="0" style="stop-color:#3D4463"/>
				<stop  offset="1" style="stop-color:#1D253B"/>
			</linearGradient>
			<path style="fill:url(#SVGID_00000166651761950143007920000010204976092508863386_);" d="M164.148,330.922h-25.796
				c-2.353,0-4.26-1.907-4.26-4.26v-25.796c0-2.353,1.907-4.26,4.26-4.26h25.796c2.353,0,4.26,1.907,4.26,4.26v25.796
				C168.408,329.015,166.5,330.922,164.148,330.922z"/>
			<g>
				
					<linearGradient id="SVGID_00000021841023360323895770000001621815278805105564_" gradientUnits="userSpaceOnUse" x1="169.056" y1="314.2284" x2="132.5254" y2="314.2284">
					<stop  offset="0" style="stop-color:#9780FA"/>
					<stop  offset="1" style="stop-color:#6440FA"/>
				</linearGradient>
				<path style="fill:url(#SVGID_00000021841023360323895770000001621815278805105564_);" d="M148.637,322.938h-2.806
					c-0.454,0-0.823-0.368-0.823-0.823v-15.774c0-0.454,0.368-0.823,0.823-0.823h2.806c0.454,0,0.823,0.368,0.823,0.823v15.774
					C149.459,322.57,149.091,322.938,148.637,322.938z"/>
				
					<linearGradient id="SVGID_00000039119125505332510720000001566649910848200865_" gradientUnits="userSpaceOnUse" x1="169.0563" y1="314.2284" x2="132.5249" y2="314.2284">
					<stop  offset="0" style="stop-color:#9780FA"/>
					<stop  offset="1" style="stop-color:#6440FA"/>
				</linearGradient>
				<path style="fill:url(#SVGID_00000039119125505332510720000001566649910848200865_);" d="M156.669,322.938h-2.807
					c-0.454,0-0.823-0.368-0.823-0.823v-15.774c0-0.454,0.368-0.823,0.823-0.823h2.807c0.454,0,0.823,0.368,0.823,0.823v15.774
					C157.492,322.57,157.123,322.938,156.669,322.938z"/>
			</g>
		</g>
		<g>
			
				<linearGradient id="SVGID_00000085241701535101510370000004848914472195547065_" gradientUnits="userSpaceOnUse" x1="216.2032" y1="313.7646" x2="179.6723" y2="313.7646">
				<stop  offset="0" style="stop-color:#9780FA"/>
				<stop  offset="1" style="stop-color:#6440FA"/>
			</linearGradient>
			<path style="fill:url(#SVGID_00000085241701535101510370000004848914472195547065_);" d="M185.499,331.422
				c-2.625,0-4.76-2.135-4.76-4.76v-25.796c0-2.625,2.135-4.76,4.76-4.76h25.796c2.624,0,4.76,2.135,4.76,4.76v25.796
				c0,2.625-2.135,4.76-4.76,4.76H185.499z"/>
			<g>
				
					<linearGradient id="SVGID_00000052080662259261539010000000474574271181809837_" gradientUnits="userSpaceOnUse" x1="216.2031" y1="314.2284" x2="179.6725" y2="314.2284">
					<stop  offset="0" style="stop-color:#FFFFFF"/>
					<stop  offset="1" style="stop-color:#CCCFD1"/>
				</linearGradient>
				<path style="fill:url(#SVGID_00000052080662259261539010000000474574271181809837_);" d="M195.784,322.938h-2.806
					c-0.454,0-0.823-0.368-0.823-0.823v-15.774c0-0.454,0.368-0.823,0.823-0.823h2.806c0.454,0,0.823,0.368,0.823,0.823v15.774
					C196.607,322.57,196.238,322.938,195.784,322.938z"/>
				
					<linearGradient id="SVGID_00000124874341351156831780000005841596147623355832_" gradientUnits="userSpaceOnUse" x1="216.2034" y1="314.2284" x2="179.672" y2="314.2284">
					<stop  offset="0" style="stop-color:#FFFFFF"/>
					<stop  offset="1" style="stop-color:#CCCFD1"/>
				</linearGradient>
				<path style="fill:url(#SVGID_00000124874341351156831780000005841596147623355832_);" d="M203.816,322.938h-2.806
					c-0.454,0-0.823-0.368-0.823-0.823v-15.774c0-0.454,0.368-0.823,0.823-0.823h2.806c0.454,0,0.823,0.368,0.823,0.823v15.774
					C204.639,322.57,204.271,322.938,203.816,322.938z"/>
			</g>
		</g>
	</g>
	<g>
		<g>
			<path style="fill:#6C77A1;" d="M32.456,474.852c-2.625,0-4.76-2.135-4.76-4.76V356.325c0-2.625,2.135-4.761,4.76-4.761H213.26
				c2.625,0,4.76,2.136,4.76,4.761v113.768c0,2.625-2.135,4.76-4.76,4.76H32.456z"/>
			
				<linearGradient id="SVGID_00000008109209519417404610000018010775154186660018_" gradientUnits="userSpaceOnUse" x1="56.5497" y1="337.8059" x2="187.8002" y2="487.0565">
				<stop  offset="0" style="stop-color:#3D4463"/>
				<stop  offset="1" style="stop-color:#1D253B"/>
			</linearGradient>
			<path style="fill:url(#SVGID_00000008109209519417404610000018010775154186660018_);" d="M213.26,474.353H32.456
				c-2.353,0-4.26-1.907-4.26-4.26V356.324c0-2.353,1.907-4.26,4.26-4.26H213.26c2.353,0,4.26,1.907,4.26,4.26v113.768
				C217.52,472.445,215.613,474.353,213.26,474.353z"/>
		</g>
		<g>
			<g>
				<text transform="matrix(1 0 0 1 39.2877 372.3518)" style="fill:#FFFFFF; font-family:'Roboto-Bold'; font-size:14px;">Lorem Ipsum</text>
			</g>
			<g>
				<rect x="39.288" y="378.233" style="fill:none;" width="88.083" height="8.536"/>
				<text transform="matrix(1 0 0 1 39.2877 384.2331)" style="fill:#6C77A1; font-family:'Roboto-Medium'; font-size:8px;">Lorem ipsum dolor sit.</text>
			</g>
			
				<linearGradient id="SVGID_00000043418215041624108550000006955456557270266519_" gradientUnits="userSpaceOnUse" x1="191.2558" y1="359.231" x2="198.8042" y2="374.7149">
				<stop  offset="0" style="stop-color:#FFFFFF"/>
				<stop  offset="1" style="stop-color:#CCCFD1"/>
			</linearGradient>
			<path style="fill:url(#SVGID_00000043418215041624108550000006955456557270266519_);" d="M190.16,364.228
				c0.212,0,0.42,0.085,0.551,0.243l3.261,3.938l3.26-3.938c0.215-0.258,0.634-0.321,0.938-0.138c0.304,0.183,0.376,0.541,0.162,0.8
				l-3.81,4.602c-0.253,0.305-0.848,0.305-1.1,0l-3.81-4.602c-0.215-0.259-0.142-0.617,0.162-0.8
				C189.891,364.262,190.026,364.228,190.16,364.228z"/>
		</g>
		<g>
			
				<linearGradient id="SVGID_00000143612243802659850530000005018176712291690416_" gradientUnits="userSpaceOnUse" x1="122.8584" y1="396.8607" x2="122.8584" y2="458.3176">
				<stop  offset="0" style="stop-color:#9780FA"/>
				<stop  offset="1" style="stop-color:#6440FA;stop-opacity:0"/>
			</linearGradient>
			<path style="fill:url(#SVGID_00000143612243802659850530000005018176712291690416_);" d="M40.584,420.124
				c0,0,7.742-5.244,16-2.493c8.258,2.751,12.903,5.009,19.871-0.378c6.968-5.387,12.645-14.161,24.774-13.645
				c12.129,0.516,15.639,9.29,26.142,12.645c10.503,3.355,18.632-17.601,29.084-21.419c8.774-3.206,21.508-6.924,48.679,17.581
				v43.581H40.584V420.124z"/>
			
				<linearGradient id="SVGID_00000109721123730018170030000016312240012188003457_" gradientUnits="userSpaceOnUse" x1="122.8584" y1="396.382" x2="122.8584" y2="465.5474">
				<stop  offset="0" style="stop-color:#78DBAD"/>
				<stop  offset="1" style="stop-color:#008FC7;stop-opacity:0"/>
			</linearGradient>
			<path style="fill:url(#SVGID_00000109721123730018170030000016312240012188003457_);" d="M40.584,429.672
				c0,0,18.323-28.129,41.032-25.806c22.71,2.323,27.613,25.29,35.097,27.613c7.484,2.323,12.903-6.193,19.097-5.677
				c6.194,0.516,5.161,5.419,11.871,5.419s14.968-17.548,19.355-25.806c4.387-8.258,7.484-14.71,18.581-13.677
				c11.097,1.032,19.517,31.742,19.517,31.742v32.516H40.584V429.672z"/>
			<path style="fill:#FFFFFF;" d="M205.133,456.245H40.583c-0.138,0-0.25-0.112-0.25-0.25v-61.161c0-0.138,0.112-0.25,0.25-0.25
				s0.25,0.112,0.25,0.25v60.911h164.3c0.138,0,0.25,0.112,0.25,0.25S205.271,456.245,205.133,456.245z"/>
		</g>
		<g>
			<g>
				<text transform="matrix(1 0 0 1 59.4364 465.2849)" style="fill:#FFFFFF; font-family:'Roboto-Medium'; font-size:7px;">A</text>
			</g>
			<g>
				<text transform="matrix(1 0 0 1 89.888 465.2849)" style="fill:#FFFFFF; font-family:'Roboto-Medium'; font-size:7px;">B</text>
			</g>
			<g>
				<text transform="matrix(1 0 0 1 120.3396 465.2849)" style="fill:#FFFFFF; font-family:'Roboto-Medium'; font-size:7px;">C</text>
			</g>
			<g>
				<text transform="matrix(1 0 0 1 150.7912 465.2849)" style="fill:#FFFFFF; font-family:'Roboto-Medium'; font-size:7px;">D</text>
			</g>
			<g>
				<text transform="matrix(1 0 0 1 181.2428 465.2849)" style="fill:#FFFFFF; font-family:'Roboto-Medium'; font-size:7px;">E</text>
			</g>
		</g>
	</g>
	<g>
		<g>
			<path style="fill:#6C77A1;" d="M248.844,417.067c-2.625,0-4.76-2.135-4.76-4.76V311.214c0-2.625,2.135-4.76,4.76-4.76h117.544
				c2.625,0,4.761,2.135,4.761,4.76v101.093c0,2.625-2.136,4.76-4.761,4.76H248.844z"/>
			
				<linearGradient id="SVGID_00000037672243031517816920000016766918001773349518_" gradientUnits="userSpaceOnUse" x1="297.2263" y1="312.498" x2="320.1941" y2="421.4014">
				<stop  offset="0" style="stop-color:#3D4463"/>
				<stop  offset="1" style="stop-color:#1D253B"/>
			</linearGradient>
			<path style="fill:url(#SVGID_00000037672243031517816920000016766918001773349518_);" d="M366.388,416.567H248.844
				c-2.353,0-4.26-1.907-4.26-4.26V311.214c0-2.353,1.907-4.26,4.26-4.26h117.544c2.353,0,4.26,1.907,4.26,4.26v101.092
				C370.648,414.659,368.741,416.567,366.388,416.567z"/>
			
				<linearGradient id="SVGID_00000010268817265894912040000015878728957593674142_" gradientUnits="userSpaceOnUse" x1="302.3635" y1="304.3659" x2="320.17" y2="359.5918">
				<stop  offset="0" style="stop-color:#008FC7"/>
				<stop  offset="1" style="stop-color:#78DBAD"/>
			</linearGradient>
			<path style="fill:url(#SVGID_00000010268817265894912040000015878728957593674142_);" d="M366.388,334.357H248.844
				c-2.353,0-4.26-1.907-4.26-4.26v-18.883c0-2.353,1.907-4.26,4.26-4.26h117.544c2.353,0,4.26,1.907,4.26,4.26v18.883
				C370.648,332.45,368.741,334.357,366.388,334.357z"/>
		</g>
		<g>
			<g>
				<text transform="matrix(1 0 0 1 255.0352 322.9381)" style="fill:#FFFFFF; font-family:'Roboto-Bold'; font-size:8px;">Dropdown Main</text>
			</g>
			<g>
				<text transform="matrix(1 0 0 1 258.0352 350.3412)" style="fill:#FFFFFF; font-family:'Roboto-Bold'; font-size:8px;">Selected</text>
			</g>
			<g>
				<text transform="matrix(1 0 0 1 255.0352 377.7443)" style="fill:#FFFFFF; font-family:'Roboto-Medium'; font-size:8px;">Normal</text>
			</g>
			<text transform="matrix(1 0 0 1 255.0352 405.1474)" style="fill:#6C77A1; font-family:'Roboto-Medium'; font-size:8px;">Unavailable</text>
			
				<linearGradient id="SVGID_00000134241348727187132610000005489759001852228287_" gradientUnits="userSpaceOnUse" x1="255.0606" y1="341.4514" x2="248.9454" y2="350.4512">
				<stop  offset="0" style="stop-color:#9780FA"/>
				<stop  offset="1" style="stop-color:#6440FA"/>
			</linearGradient>
			<path style="fill:url(#SVGID_00000134241348727187132610000005489759001852228287_);" d="M253.221,347.47
				c0,1.243-1.007,2.25-2.25,2.25s-2.25-1.007-2.25-2.25c0-1.243,1.007-2.25,2.25-2.25S253.221,346.228,253.221,347.47z"/>
			
				<linearGradient id="SVGID_00000164496348140213779830000015841730054259138490_" gradientUnits="userSpaceOnUse" x1="354.415" y1="312.7908" x2="361.9634" y2="328.2748">
				<stop  offset="0" style="stop-color:#FFFFFF"/>
				<stop  offset="1" style="stop-color:#CCCFD1"/>
			</linearGradient>
			<path style="fill:url(#SVGID_00000164496348140213779830000015841730054259138490_);" d="M353.32,317.788
				c0.212,0,0.419,0.085,0.551,0.243l3.261,3.938l3.26-3.938c0.215-0.258,0.634-0.321,0.938-0.138
				c0.304,0.183,0.376,0.541,0.162,0.8l-3.81,4.602c-0.253,0.305-0.848,0.305-1.1,0l-3.81-4.602c-0.215-0.259-0.142-0.617,0.162-0.8
				C353.05,317.822,353.186,317.788,353.32,317.788z"/>
		</g>
	</g>
	<g>
		<g>
			
				<linearGradient id="SVGID_00000085935911956649880320000002295859158856549811_" gradientUnits="userSpaceOnUse" x1="268.3439" y1="438.8752" x2="257.1181" y2="462.3913">
				<stop  offset="0" style="stop-color:#78DBAD"/>
				<stop  offset="1" style="stop-color:#008FC7"/>
			</linearGradient>
			<path style="fill:url(#SVGID_00000085935911956649880320000002295859158856549811_);" d="M262.562,463.139
				c-6.7,0-12.151-5.45-12.151-12.15s5.451-12.151,12.151-12.151c6.7,0,12.15,5.451,12.15,12.151S269.262,463.139,262.562,463.139z
				 M262.562,440.337c-5.873,0-10.651,4.778-10.651,10.651c0,5.873,4.778,10.65,10.651,10.65c5.873,0,10.65-4.777,10.65-10.65
				C273.212,445.116,268.435,440.337,262.562,440.337z"/>
			
				<linearGradient id="SVGID_00000111159456397052762880000008515631368371530922_" gradientUnits="userSpaceOnUse" x1="267.4149" y1="438.4317" x2="256.1891" y2="461.9479">
				<stop  offset="0" style="stop-color:#78DBAD"/>
				<stop  offset="1" style="stop-color:#008FC7"/>
			</linearGradient>
			<path style="fill:url(#SVGID_00000111159456397052762880000008515631368371530922_);" d="M262.14,456.462
				c-0.197,0-0.389-0.078-0.529-0.219l-5.337-5.323c-0.294-0.293-0.294-0.767-0.002-1.061c0.293-0.295,0.767-0.293,1.06-0.002
				l4.702,4.69l5.669-8.167c0.236-0.34,0.702-0.425,1.044-0.189c0.34,0.236,0.425,0.703,0.189,1.044l-6.18,8.903
				c-0.127,0.183-0.328,0.299-0.549,0.319C262.185,456.462,262.162,456.462,262.14,456.462z"/>
		</g>
		<g>
			
				<linearGradient id="SVGID_00000139256891751709401820000004189190906977236647_" gradientUnits="userSpaceOnUse" x1="301.5712" y1="441.1013" x2="288.9905" y2="462.9724">
				<stop  offset="0" style="stop-color:#9780FA"/>
				<stop  offset="1" style="stop-color:#6440FA"/>
			</linearGradient>
			<path style="fill:url(#SVGID_00000139256891751709401820000004189190906977236647_);" d="M295.883,463.139
				c-6.7,0-12.15-5.45-12.15-12.15s5.45-12.151,12.15-12.151s12.151,5.451,12.151,12.151S302.584,463.139,295.883,463.139z
				 M295.883,440.337c-5.873,0-10.65,4.778-10.65,10.651c0,5.873,4.777,10.65,10.65,10.65c5.873,0,10.651-4.777,10.651-10.65
				C306.535,445.116,301.756,440.337,295.883,440.337z"/>
			
				<linearGradient id="SVGID_00000011000912442617657790000008035734482650226562_" gradientUnits="userSpaceOnUse" x1="301.5711" y1="441.1013" x2="288.9905" y2="462.9723">
				<stop  offset="0" style="stop-color:#9780FA"/>
				<stop  offset="1" style="stop-color:#6440FA"/>
			</linearGradient>
			<path style="fill:url(#SVGID_00000011000912442617657790000008035734482650226562_);" d="M296.944,450.988l3.735-3.735
				c0.293-0.293,0.293-0.768,0-1.061s-0.768-0.293-1.061,0l-3.735,3.735l-3.735-3.735c-0.293-0.293-0.768-0.293-1.06,0
				c-0.293,0.293-0.293,0.768,0,1.061l3.735,3.735l-3.735,3.735c-0.293,0.293-0.293,0.768,0,1.061c0.146,0.146,0.338,0.22,0.53,0.22
				c0.192,0,0.384-0.073,0.53-0.22l3.735-3.735l3.735,3.735c0.147,0.146,0.338,0.22,0.53,0.22c0.192,0,0.384-0.073,0.53-0.22
				c0.293-0.293,0.293-0.768,0-1.061L296.944,450.988z"/>
		</g>
	</g>
	<g>
		<g>
			<path style="fill:#6C77A1;" d="M327.739,460.406c-1.467,0-2.66-1.193-2.66-2.66v-12.454c0-1.467,1.193-2.66,2.66-2.66h12.454
				c1.467,0,2.66,1.193,2.66,2.66v12.454c0,1.467-1.193,2.66-2.66,2.66H327.739z"/>
			
				<linearGradient id="SVGID_00000039113794810375922170000003229980978744881312_" gradientUnits="userSpaceOnUse" x1="325.5797" y1="451.5187" x2="342.3539" y2="451.5187">
				<stop  offset="0" style="stop-color:#3D4463"/>
				<stop  offset="1" style="stop-color:#1D253B"/>
			</linearGradient>
			<path style="fill:url(#SVGID_00000039113794810375922170000003229980978744881312_);" d="M340.194,459.906H327.74
				c-1.193,0-2.16-0.967-2.16-2.16v-12.454c0-1.193,0.967-2.16,2.16-2.16h12.454c1.193,0,2.16,0.967,2.16,2.16v12.454
				C342.354,458.939,341.387,459.906,340.194,459.906z"/>
		</g>
		<g>
			
				<linearGradient id="SVGID_00000049201733366541998280000011595150906892285062_" gradientUnits="userSpaceOnUse" x1="351.8055" y1="451.5187" x2="368.5797" y2="451.5187">
				<stop  offset="0" style="stop-color:#3D4463"/>
				<stop  offset="1" style="stop-color:#1D253B"/>
			</linearGradient>
			<path style="fill:url(#SVGID_00000049201733366541998280000011595150906892285062_);" d="M366.42,459.906h-12.454
				c-1.193,0-2.16-0.967-2.16-2.16v-12.454c0-1.193,0.967-2.16,2.16-2.16h12.454c1.193,0,2.16,0.967,2.16,2.16v12.454
				C368.58,458.939,367.613,459.906,366.42,459.906z"/>
			
				<linearGradient id="SVGID_00000077315474717252088990000007943390327872435892_" gradientUnits="userSpaceOnUse" x1="370.2793" y1="439.5348" x2="347.6342" y2="466.438">
				<stop  offset="0" style="stop-color:#9780FA"/>
				<stop  offset="1" style="stop-color:#6440FA"/>
			</linearGradient>
			<path style="fill:url(#SVGID_00000077315474717252088990000007943390327872435892_);" d="M365.079,456.406h-9.774v-9.775h9.774
				V456.406z M366.419,442.631h-12.454c-1.467,0-2.66,1.193-2.66,2.66v12.454c0,1.467,1.193,2.66,2.66,2.66h12.454
				c1.467,0,2.66-1.193,2.66-2.66v-12.454C369.079,443.825,367.886,442.631,366.419,442.631L366.419,442.631z"/>
		</g>
	</g>
	<g>
		<g>
			
				<linearGradient id="SVGID_00000138534709327852589550000017406905661070122625_" gradientUnits="userSpaceOnUse" x1="463.99" y1="325.4824" x2="401.4081" y2="325.4824">
				<stop  offset="0" style="stop-color:#9780FA"/>
				<stop  offset="1" style="stop-color:#6440FA"/>
			</linearGradient>
			<path style="fill:url(#SVGID_00000138534709327852589550000017406905661070122625_);" d="M456.296,333.177h-47.833
				c-4.249,0-7.694-3.445-7.694-7.694l0,0c0-4.249,3.445-7.694,7.694-7.694h47.833c4.249,0,7.694,3.445,7.694,7.694l0,0
				C463.99,329.732,460.545,333.177,456.296,333.177z"/>
			
				<linearGradient id="SVGID_00000104700665238701240080000011777663037818599571_" gradientUnits="userSpaceOnUse" x1="414.6307" y1="317.2628" x2="418.7598" y2="334.6822">
				<stop  offset="0" style="stop-color:#FFFFFF"/>
				<stop  offset="1" style="stop-color:#CCCFD1"/>
			</linearGradient>
			<path style="fill:url(#SVGID_00000104700665238701240080000011777663037818599571_);" d="M424.695,333.177h-16.232
				c-4.249,0-7.694-3.445-7.694-7.694l0,0c0-4.249,3.445-7.694,7.694-7.694h16.232c4.249,0,7.694,3.445,7.694,7.694l0,0
				C432.39,329.732,428.945,333.177,424.695,333.177z"/>
			<g>
				<text transform="matrix(1 0 0 1 440.8207 327.9701)" style="fill:#FFFFFF; font-family:'Roboto-Medium'; font-size:7px;">OFF</text>
			</g>
		</g>
		<g>
			
				<linearGradient id="SVGID_00000100355623183966980400000004563703908686744476_" gradientUnits="userSpaceOnUse" x1="401.3275" y1="355.8069" x2="435.6283" y2="355.8069">
				<stop  offset="0" style="stop-color:#78DBAD"/>
				<stop  offset="1" style="stop-color:#008FC7"/>
			</linearGradient>
			<path style="fill:url(#SVGID_00000100355623183966980400000004563703908686744476_);" d="M456.296,363.501h-47.833
				c-4.249,0-7.694-3.445-7.694-7.694v0c0-4.249,3.445-7.694,7.694-7.694h47.833c4.249,0,7.694,3.445,7.694,7.694v0
				C463.99,360.056,460.545,363.501,456.296,363.501z"/>
			
				<linearGradient id="SVGID_00000111882415725575711210000015857187775575517831_" gradientUnits="userSpaceOnUse" x1="446.0873" y1="347.5872" x2="450.2164" y2="365.0066">
				<stop  offset="0" style="stop-color:#FFFFFF"/>
				<stop  offset="1" style="stop-color:#CCCFD1"/>
			</linearGradient>
			<path style="fill:url(#SVGID_00000111882415725575711210000015857187775575517831_);" d="M456.152,363.501h-16.233
				c-4.249,0-7.694-3.445-7.694-7.694v0c0-4.249,3.445-7.694,7.694-7.694h16.233c4.249,0,7.694,3.445,7.694,7.694v0
				C463.846,360.056,460.401,363.501,456.152,363.501z"/>
			<g>
				<text transform="matrix(1 0 0 1 412.0651 358.2946)" style="fill:#FFFFFF; font-family:'Roboto-Medium'; font-size:7px;">ON</text>
			</g>
		</g>
	</g>
	<g>
		<g>
			<g>
				<path style="fill:#6C77A1;" d="M471.36,406.981h-81.269c-0.138,0-0.25-0.112-0.25-0.25s0.112-0.25,0.25-0.25h81.269
					c0.138,0,0.25,0.112,0.25,0.25S471.498,406.981,471.36,406.981z"/>
				<path style="fill:#6C77A1;" d="M471.36,430.013h-81.269c-0.138,0-0.25-0.112-0.25-0.25c0-0.138,0.112-0.25,0.25-0.25h81.269
					c0.138,0,0.25,0.112,0.25,0.25C471.61,429.901,471.498,430.013,471.36,430.013z"/>
			</g>
			<g>
				
					<linearGradient id="SVGID_00000028311843682496529920000014704299870581902229_" gradientUnits="userSpaceOnUse" x1="402.2973" y1="388.8442" x2="398.5232" y2="401.5215">
					<stop  offset="0" style="stop-color:#78DBAD"/>
					<stop  offset="1" style="stop-color:#008FC7"/>
				</linearGradient>
				<path style="fill:url(#SVGID_00000028311843682496529920000014704299870581902229_);" d="M399.728,394.87
					c-0.022-0.002-0.045-0.002-0.066,0c-3.088,0.413-3.057,4.406-3.056,4.446c0.002,0.137,0.113,0.246,0.25,0.246h5.677
					c0.137,0,0.248-0.109,0.25-0.246C402.783,399.276,402.814,395.283,399.728,394.87z M397.111,399.062
					c0.04-0.817,0.345-3.368,2.583-3.692c2.237,0.324,2.542,2.875,2.582,3.692H397.111z M399.693,394.538
					c1.112,0,2.017-0.904,2.017-2.017c0-1.111-0.904-2.016-2.017-2.016c-1.111,0-2.016,0.904-2.016,2.016
					C397.678,393.634,398.582,394.538,399.693,394.538z M399.693,391.006c0.836,0,1.517,0.68,1.517,1.516s-0.681,1.517-1.517,1.517
					s-1.516-0.681-1.516-1.517S398.857,391.006,399.693,391.006z"/>
				<text transform="matrix(1 0 0 1 410.3263 397.7957)" style="fill:#FFFFFF; font-family:'Roboto-Medium'; font-size:8px;">Username</text>
			</g>
			<g>
				
					<linearGradient id="SVGID_00000086665728460637465040000006662393672686569373_" gradientUnits="userSpaceOnUse" x1="402.7646" y1="410.9576" x2="398.7001" y2="422.5706">
					<stop  offset="0" style="stop-color:#78DBAD"/>
					<stop  offset="1" style="stop-color:#008FC7"/>
				</linearGradient>
				<path style="fill:url(#SVGID_00000086665728460637465040000006662393672686569373_);" d="M402.532,416.868h-4.475
					c0.072-1.359,0.711-2.467,1.467-2.467c0.563,0,1.104,0.642,1.347,1.598c0.033,0.134,0.17,0.217,0.304,0.181
					c0.134-0.034,0.215-0.17,0.181-0.304c-0.304-1.199-1.022-1.975-1.831-1.975c-1.058,0-1.889,1.287-1.966,2.967h-0.703
					c-0.138,0-0.25,0.112-0.25,0.25v5.227c0,0.138,0.112,0.25,0.25,0.25h5.677c0.138,0,0.25-0.112,0.25-0.25v-5.227
					C402.782,416.98,402.67,416.868,402.532,416.868z M402.282,422.095h-5.177v-4.727h5.177V422.095z"/>
				<g>
					<text transform="matrix(1 0 0 1 410.3263 421.3119)" style="fill:#6C77A1; font-family:'Roboto-Medium'; font-size:8px;">Password</text>
				</g>
				<path style="fill:#6C77A1;" d="M452,419.054c0,0.695-0.563,1.258-1.258,1.258c-0.695,0-1.258-0.563-1.258-1.258
					s0.563-1.258,1.258-1.258C451.437,417.796,452,418.359,452,419.054z"/>
				<path style="fill:#6C77A1;" d="M457.172,419.054c0,0.695-0.563,1.258-1.258,1.258c-0.695,0-1.258-0.563-1.258-1.258
					s0.563-1.258,1.258-1.258C456.608,417.796,457.172,418.359,457.172,419.054z"/>
				<path style="fill:#6C77A1;" d="M462.343,419.054c0,0.695-0.563,1.258-1.258,1.258s-1.258-0.563-1.258-1.258
					s0.563-1.258,1.258-1.258S462.343,418.359,462.343,419.054z"/>
				<path style="fill:#6C77A1;" d="M467.515,419.054c0,0.695-0.563,1.258-1.258,1.258c-0.695,0-1.258-0.563-1.258-1.258
					s0.563-1.258,1.258-1.258C466.952,417.796,467.515,418.359,467.515,419.054z"/>
			</g>
		</g>
		<g>
			
				<linearGradient id="SVGID_00000085252601057579629980000014231445663762085780_" gradientUnits="userSpaceOnUse" x1="439.5683" y1="434.5372" x2="420.8587" y2="463.9565">
				<stop  offset="0" style="stop-color:#9780FA"/>
				<stop  offset="1" style="stop-color:#6440FA"/>
			</linearGradient>
			<path style="fill:url(#SVGID_00000085252601057579629980000014231445663762085780_);" d="M449.856,455.828h-38.261
				c-1.193,0-2.16-0.967-2.16-2.16v-10.454c0-1.193,0.967-2.16,2.16-2.16h38.261c1.193,0,2.16,0.967,2.16,2.16v10.454
				C452.016,454.861,451.049,455.828,449.856,455.828z"/>
			<text transform="matrix(1 0 0 1 420.5615 450.5494)" style="fill:#FFFFFF; font-family:'Roboto-Medium'; font-size:7px;">LOGIN</text>
		</g>
		<g>
			<g>
				<text transform="matrix(1 0 0 1 394.3274 469.1638)" style="fill:#FFFFFF; font-family:'Roboto-Medium'; font-size:7px;">first time here?</text>
			</g>
			
				<text transform="matrix(1 0 0 1 445.235 469.1638)" style="fill:#6C77A1; font-family:'Roboto-Medium'; font-size:7px; text-decoration: underline;">sign up</text>
		</g>
	</g>
</g>
</svg>
