<?xml version="1.0" encoding="utf-8"?>
<!-- Generator: Adobe Illustrator 27.5.0, SVG Export Plug-In . SVG Version: 6.00 Build 0)  -->
<svg version="1.1" xmlns="http://www.w3.org/2000/svg" xmlns:xlink="http://www.w3.org/1999/xlink" x="0px" y="0px"
	 viewBox="0 0 500 500" style="enable-background:new 0 0 500 500;" xml:space="preserve">
<g id="BACKGROUND">
	<rect style="fill:#FFFFFF;" width="500" height="500"/>
</g>
<g id="OBJECT">
	<g>
		<path style="fill:#D7EAF1;" d="M162.97,98.81c0,15.75-5.62,30.19-14.97,41.41c-3.78,4.55-8.18,8.58-13.07,11.94
			c-1.07,0.75-2.16,1.46-3.28,2.13c-9.73,5.89-21.13,9.28-33.32,9.31h-0.16c-0.62,0-1.23-0.01-1.84-0.03
			c-12.27-0.34-23.68-4.09-33.32-10.34c-1.02-0.65-2.01-1.34-2.99-2.05c-4.86-3.54-9.2-7.75-12.9-12.48
			c-8.61-11-13.74-24.84-13.74-39.89c0-35.79,29.01-64.8,64.79-64.8C133.96,34.01,162.97,63.02,162.97,98.81z"/>
		<g>
			<g>
				<g>
					<path style="fill:#4749D6;" d="M148,140.22c-3.78,4.55-8.18,8.58-13.07,11.94c-1.07,0.75-2.16,1.46-3.28,2.13
						c-9.73,5.89-21.13,9.28-33.32,9.31h-0.16c-0.62,0-1.23-0.01-1.84-0.03c-12.27-0.34-23.68-4.09-33.32-10.34
						c-1.02-0.65-2.01-1.34-2.99-2.05c-4.86-3.54-9.2-7.75-12.9-12.48c1.9-5.41,6.34-9.64,11.99-11.2l15.53-4.29l4.91-1.36
						l5.53-1.53l1.7-9.53v-0.01l0.5-2.77l0.25-1.46l0.49-2.7l0.27-1.53l8.28,3.24l0.76,0.3l0.76-0.3l8.28-3.24l0.27,1.53l0.49,2.7
						l0.75,4.23v0.01l0.66,3.72l1.04,5.81l5.53,1.53l4.91,1.36l15.53,4.29C141.72,129.2,146.45,134.09,148,140.22z"/>
					<g>
						<path style="fill:#3537A1;" d="M98.33,133.72v29.88h-0.16c-0.62,0-1.23-0.01-1.84-0.03v-29.85c0-0.58,0.45-1.06,1-1.06
							C97.88,132.66,98.33,133.14,98.33,133.72z"/>
					</g>
					<path style="fill:#F69779;" d="M109.58,120.32c0,0-1.18,4.77-2.66,6.91c-2.36,3.43-3.69,2.13-9.59,8.32
						c-6.69-3.04-12.25-15.23-12.25-15.23l2.2-12.31l1.01-5.69l9.04,3.54l9.04-3.54l2.17,12.19L109.58,120.32z"/>
					<path style="fill:#F37A67;" d="M108.54,114.51c-3.48,1.32-6.25,1.32-6.25,1.32s-9.11,0-15.01-7.82l1.01-5.69l9.04,3.54
						l9.04-3.54L108.54,114.51z"/>
				</g>
				<g>
					<g>
						<polygon style="fill:#7375F5;" points="107.719,110.618 110.585,129.317 119.332,132.66 112.814,115.962 						"/>
						<polygon style="fill:#3537A1;" points="108.72,117.15 97.33,135.55 110.585,129.317 						"/>
					</g>
					<g>
						<polygon style="fill:#7375F5;" points="86.941,110.618 84.075,129.317 75.328,132.66 81.846,115.962 						"/>
						<polygon style="fill:#3537A1;" points="85.94,117.15 97.33,135.55 84.075,129.317 						"/>
					</g>
				</g>
			</g>
			<path style="fill:#051733;" d="M121.832,76.863c-0.324-0.463-2.854,2.075-2.854,2.075s2.961-4.62,2.314-5.314
				c-0.647-0.693-2.555,1.598-2.56,1.604v0c0.005-0.008,2.236-3.919,1.912-4.843c-0.324-0.925-2.386,1.18-2.386,1.18
				s1.947-3.313,1.482-5.01c-0.465-1.697-2.452,0.63-2.452,0.63s1.306-4.898,0.561-5.268c-0.746-0.371-2.101,1.159-2.101,1.159
				s0.041-4.258-0.606-4.953c-0.647-0.694-2.05,0-2.05,0s0.108-3.355-0.658-3.818c-0.766-0.463-3.226,0.694-3.226,0.694
				s-0.108-2.777-1.295-2.834c-1.187-0.058-2.697,1.434-2.697,1.434s-0.647-3.227-1.705-3.343c-1.057-0.116-2.719,1.909-2.719,1.909
				c-1.079-2.834-3.462-4.043-3.462-4.043s-2.383,1.209-3.462,4.043c0,0-1.662-2.025-2.719-1.909
				c-1.057,0.116-1.705,3.343-1.705,3.343s-1.511-1.492-2.697-1.434c-1.187,0.058-1.295,2.834-1.295,2.834s-2.46-1.157-3.226-0.694
				c-0.766,0.463-0.658,3.818-0.658,3.818s-1.403-0.694-2.05,0c-0.647,0.694-0.606,4.953-0.606,4.953s-1.355-1.529-2.101-1.159
				c-0.746,0.371,0.561,5.268,0.561,5.268s-1.986-2.327-2.452-0.63c-0.465,1.697,1.482,5.01,1.482,5.01s-2.063-2.105-2.386-1.18
				c-0.323,0.924,1.907,4.834,1.912,4.843l0,0c-0.006-0.007-1.913-2.297-2.56-1.604c-0.647,0.694,2.314,5.314,2.314,5.314l0,0
				c0,0-2.53-2.538-2.854-2.075c-0.29,0.415,2.278,4.451,2.811,5.279c0.011,0.874,0.038,1.387,0.038,1.387l4.064,4.625L97.33,85.76
				l17.589,2.393l4.064-4.625c0,0,0.027-0.513,0.038-1.387C119.554,81.314,122.122,77.278,121.832,76.863z"/>
			<path style="fill:#F69779;" d="M120.71,87.4c-0.91,1.34-2.26,2.35-3.84,2.71c-2.78,19.5-19.54,19.5-19.54,19.5
				s-16.76,0-19.54-19.5c-1.58-0.36-2.93-1.37-3.84-2.71c-0.91-1.34-1.29-3.02-1.05-4.63c0.12-0.79,0.42-1.6,1.03-2.13
				c0.55-0.48,1.3-0.68,2.03-0.65c0.73,0.03,1.43,0.28,2.09,0.6c0,0,0.06-18.44,6.6-18.65c4.28-0.22,6.19,1.07,12.68,1.07
				c6.49,0,8.4-1.29,12.68-1.07c6.54,0.21,6.6,18.65,6.6,18.65c0.66-0.32,1.36-0.57,2.09-0.6c0.73-0.03,1.48,0.17,2.03,0.65
				c0.61,0.53,0.91,1.34,1.03,2.13C122,84.38,121.62,86.06,120.71,87.4z"/>
			<path style="fill:#051733;" d="M97.33,105.52c0,0-0.28,0.03-0.76,0.04l0.76,0.3l0.76-0.3C97.61,105.55,97.33,105.52,97.33,105.52
				z M116.76,86.06l-0.15-5.47c0,0-1.77,2.8-2.86,7.4c-0.4,1.66-0.71,3.56-0.81,5.65c0,0-6.46-2.66-15.61-2.66
				c-4.57,0-8.48,0.66-11.24,1.33c-2.75,0.67-4.37,1.33-4.37,1.33c-0.1-2.09-0.41-3.99-0.81-5.65c-1.09-4.6-2.86-7.4-2.86-7.4
				l-0.15,5.47l-0.11,4.05c1.28,8.98,5.53,13.83,9.74,16.44c0,0,0,0.01,0.01,0.01c4.92,3.05,9.79,3.05,9.79,3.05s4.87,0,9.79-3.05
				c0.01,0,0.01-0.01,0.01-0.01c4.21-2.61,8.46-7.46,9.74-16.44L116.76,86.06z M108.26,101.33c-0.17,1.09-0.77,1.91-1.62,2.52
				c-2.41,1.73-6.8,1.77-8.55,1.71c-0.48-0.01-0.76-0.04-0.76-0.04s-0.28,0.03-0.76,0.04c-1.75,0.06-6.14,0.02-8.55-1.71
				c-0.85-0.61-1.45-1.43-1.62-2.52c-0.75-5.06,3.21-8.09,10.93-7.8C105.05,93.24,109.01,96.27,108.26,101.33z"/>
			<g>
				<path style="fill:#3537A1;" d="M134.93,152.16c-1.07,0.75-2.16,1.46-3.28,2.13v-13.03L134.93,152.16z"/>
				<path style="fill:#3537A1;" d="M63.01,141.26v11.97c-1.02-0.65-2.01-1.34-2.99-2.05L63.01,141.26z"/>
			</g>
			<g>
				<path style="fill:#F37A67;" d="M96.391,78.566v11.441h1.939C101.653,90.007,97.008,79.881,96.391,78.566z"/>
				<g>
					<g>
						<path style="fill:#051733;" d="M110.488,74.109c-2.68-1.324-5.659-1.52-8.452-0.41c-1.183,0.471-0.668,2.406,0.532,1.929
							c2.289-0.91,4.686-0.891,6.911,0.208C110.631,76.405,111.645,74.68,110.488,74.109z"/>
						<circle style="fill:#051733;" cx="106.189" cy="78.566" r="1.886"/>
					</g>
					<g>
						<path style="fill:#051733;" d="M84.172,74.109c2.68-1.324,5.659-1.52,8.452-0.41c1.183,0.471,0.668,2.406-0.532,1.929
							c-2.289-0.91-4.686-0.891-6.911,0.208C84.029,76.405,83.016,74.68,84.172,74.109z"/>
						<circle style="fill:#051733;" cx="88.471" cy="78.566" r="1.886"/>
					</g>
				</g>
				<path style="fill:#FFFFFF;" d="M91.185,97.476c0.665,2.482,3.16,4.33,6.146,4.33c2.985,0,5.481-1.848,6.145-4.33H91.185z"/>
			</g>
		</g>
	</g>
	<g>
		<path style="fill:#D7EAF1;" d="M314.8,98.81c0,18.33-7.62,34.89-19.86,46.67c-0.06,0.07-0.13,0.13-0.19,0.19
			c-4.37,4.17-9.31,7.74-14.71,10.56c-0.95,0.5-1.91,0.98-2.89,1.43c-8.25,3.81-17.45,5.94-27.15,5.94c-9.7,0-18.9-2.13-27.15-5.94
			c-0.98-0.45-1.94-0.93-2.89-1.43c-5.4-2.82-10.34-6.39-14.71-10.56c-0.06-0.06-0.13-0.12-0.19-0.19
			c-12.24-11.78-19.86-28.34-19.86-46.67c0-35.79,29.01-64.8,64.8-64.8S314.8,63.02,314.8,98.81z"/>
		<g>
			<g>
				<path style="fill:#051733;" d="M276.167,75.481c0,0,0.298-11.153-9.656-18.79c-1.712-1.481-3.707-2.575-5.712-3.387
					c-0.03-0.014-0.058-0.029-0.089-0.042l-0.018-0.004c-0.587-0.234-1.173-0.452-1.752-0.64c-5.796-1.887-12.084-1.887-17.879,0
					c-0.579,0.189-1.166,0.406-1.752,0.64l-0.018,0.004c-0.031,0.014-0.058,0.028-0.089,0.042c-2.005,0.812-4,1.906-5.712,3.387
					c-9.955,7.636-9.656,18.79-9.656,18.79L216,148.33h34h34L276.167,75.481z"/>
				<path style="fill:#F69779;" d="M295.07,145.67h-0.32c-4.37,4.17-9.31,7.74-14.71,10.56c-0.95,0.5-1.91,0.98-2.89,1.43
					c-8.25,3.81-17.45,5.94-27.15,5.94c-9.7,0-18.9-2.13-27.15-5.94c-0.98-0.45-1.94-0.93-2.89-1.43
					c-5.4-2.82-10.34-6.39-14.71-10.56h-0.32c0.04-0.06,0.09-0.13,0.13-0.19c3.05-4.5,7.32-8.08,12.35-10.28
					c0.41-0.18,0.82-0.35,1.23-0.51l3.19-1.23l2.78-1.07c0.02-0.01,0.04-0.02,0.06-0.02c8.13-3.15,14.1-10.21,15.88-18.75l0.49-2.35
					l0.79-3.81l1.06-5.14h14.22l1.06,5.14l1.28,6.16c0.3,1.42,0.71,2.81,1.23,4.14c2.6,6.65,7.88,11.99,14.65,14.61
					c0.02,0,0.04,0.01,0.06,0.02l2.78,1.07l3.19,1.23c0.41,0.16,0.82,0.33,1.23,0.51c5.03,2.2,9.3,5.78,12.35,10.28
					C294.98,145.54,295.03,145.61,295.07,145.67z"/>
				<g>
					<path style="fill:#F37A67;" d="M260.68,117.76c-2.86,0.88-4.99,0.88-4.99,0.88s-8.76,0-14.65-7.37l1.85-8.95h14.22l2.34,11.3
						C259.75,115.04,260.16,116.43,260.68,117.76z"/>
				</g>
				<g>
					<g>
						<path style="fill:#F69779;" d="M273.38,87.4c-0.91,1.34-2.26,2.35-3.84,2.71c-2.78,19.5-19.54,19.5-19.54,19.5
							s-11.31,0-16.88-10.81c0.02-3.59,0.61-7.18,1.75-10.59c0.91-2.71,2.15-5.32,2.86-8.1c0.61-2.4,0.95-4.88,1.08-7.38
							c0.05-0.83,0.07-1.67,0.07-2.5c0-0.19,0-0.38,0.01-0.57c0.03-0.74,0.13-1.47,0.28-2.19c0.29-0.42,5.39-7.7,15.69-8.36
							c0,0,6.91,0.1,12.31,6.76c0.12,0.28,0.21,0.55,0.3,0.81c0.55,1.67,0.59,2.84,0.59,2.84c0.03,0.13,0.06,0.26,0.08,0.39
							c1.12,5.06,1.14,10.68,1.14,10.68c0.66-0.32,1.36-0.57,2.09-0.6c0.73-0.03,1.48,0.17,2.03,0.65c0.61,0.53,0.91,1.34,1.03,2.13
							C274.67,84.38,274.29,86.06,273.38,87.4z"/>
					</g>
				</g>
			</g>
			<g>
				<path style="fill:#E30081;" d="M268.14,69.91c-4.23,2.69-11.32,3.94-18.37,3.94c-3.94,0-7.71-0.39-10.96-1.12
					c0.05-0.83,0.07-1.67,0.07-2.5c0-0.19,0-0.38,0.01-0.57c3.08,0.75,6.81,1.19,10.88,1.19c8.04,0,14.78-1.69,17.7-4.17
					c0.55,1.67,0.59,2.84,0.59,2.84C268.09,69.65,268.12,69.78,268.14,69.91z"/>
			</g>
			<g>
				<g>
					<path style="fill:#E30081;" d="M278.17,133.46l-2.38,12.21l-0.64,3.26c-0.14,0.72-0.77,1.21-1.47,1.21
						c-0.1,0-0.19-0.01-0.29-0.02c-0.81-0.16-1.34-0.95-1.18-1.76l0.52-2.64l2.6-13.35c0.02,0,0.04,0.01,0.06,0.02L278.17,133.46z"
						/>
				</g>
				<g>
					<path style="fill:#E30081;" d="M226.61,150.12c-0.1,0.01-0.19,0.02-0.29,0.02c-0.7,0-1.33-0.49-1.47-1.21l-0.64-3.26
						l-2.38-12.21l2.78-1.07c0.02-0.01,0.04-0.02,0.06-0.02l2.6,13.35l0.52,2.64C227.95,149.17,227.42,149.96,226.61,150.12z"/>
				</g>
			</g>
			<path style="fill:#E30081;" d="M294.75,145.67c-4.37,4.17-9.31,7.74-14.71,10.56c-0.95,0.5-1.91,0.98-2.89,1.43
				c-8.25,3.81-17.45,5.94-27.15,5.94c-9.7,0-18.9-2.13-27.15-5.94c-0.98-0.45-1.94-0.93-2.89-1.43
				c-5.4-2.82-10.34-6.39-14.71-10.56h20.79c0.41,0,0.82,0.02,1.23,0.05c1.95,0.13,3.87,0.6,5.71,1.29
				c1.47,0.56,3.04,0.99,4.61,1.32c6.23,1.33,12.41,1.1,12.41,1.1s6.18,0.23,12.41-1.1c1.57-0.33,3.14-0.76,4.61-1.32
				c1.84-0.69,3.76-1.16,5.71-1.29c0.41-0.03,0.82-0.05,1.23-0.05H294.75z"/>
			<g>
				<path style="fill:#A80060;" d="M280.04,156.23c-0.95,0.5-1.91,0.98-2.89,1.43l-0.48-6.6L280.04,156.23z"/>
				<path style="fill:#A80060;" d="M223.33,151.06l-0.48,6.6c-0.98-0.45-1.94-0.93-2.89-1.43L223.33,151.06z"/>
			</g>
			<g>
				<path style="fill:#F37A67;" d="M249.061,81.434v11.441H251C254.323,92.875,249.678,82.749,249.061,81.434z"/>
				<g>
					<g>
						<path style="fill:#051733;" d="M263.158,76.977c-2.68-1.324-5.658-1.52-8.452-0.41c-1.183,0.471-0.668,2.406,0.532,1.929
							c2.289-0.91,4.686-0.891,6.911,0.208C263.301,79.273,264.314,77.548,263.158,76.977z"/>
						<path style="fill:#051733;" d="M260.745,80.54c-0.609-1.056-1.886-0.992-1.886-0.992c-1.042,0-1.886,0.844-1.886,1.886
							c0,1.042,0.844,1.886,1.886,1.886c0.23,0,0.447-0.047,0.651-0.122l0.001,0.005c0.012-0.004,0.021-0.011,0.033-0.016
							c0.061-0.024,0.118-0.054,0.176-0.084c1.649-0.715,1.825-2.546,1.825-2.546C261.216,80.835,260.745,80.54,260.745,80.54z"/>
					</g>
					<g>
						<path style="fill:#051733;" d="M236.842,76.977c2.68-1.324,5.659-1.52,8.452-0.41c1.183,0.471,0.668,2.406-0.532,1.929
							c-2.289-0.91-4.686-0.891-6.911,0.208C236.699,79.273,235.686,77.548,236.842,76.977z"/>
						<path style="fill:#051733;" d="M239.255,80.54c0.609-1.056,1.886-0.992,1.886-0.992c1.042,0,1.886,0.844,1.886,1.886
							c0,1.042-0.844,1.886-1.886,1.886c-0.23,0-0.447-0.047-0.651-0.122l-0.001,0.005c-0.012-0.004-0.021-0.011-0.033-0.016
							c-0.061-0.024-0.118-0.054-0.176-0.084c-1.649-0.715-1.825-2.546-1.825-2.546C238.784,80.835,239.255,80.54,239.255,80.54z"/>
					</g>
				</g>
				<path style="fill:#FFFFFF;" d="M243.854,98.962c0.665,2.482,3.16,4.33,6.146,4.33c2.985,0,5.481-1.848,6.146-4.33H243.854z"/>
			</g>
		</g>
	</g>
	<g>
		<path style="fill:#D7EAF1;" d="M466.62,98.81c0,15.39-5.37,29.53-14.33,40.64c-3.82,4.73-8.29,8.92-13.27,12.41
			c-1.73,1.22-3.51,2.35-5.36,3.39c-9.4,5.32-20.26,8.35-31.83,8.35c-11.57,0-22.43-3.03-31.83-8.35c-1.85-1.04-3.64-2.17-5.36-3.38
			c-4.99-3.5-9.46-7.68-13.27-12.42c-8.97-11.11-14.34-25.25-14.34-40.64c0-35.79,29.01-64.8,64.8-64.8
			C437.61,34.01,466.62,63.02,466.62,98.81z"/>
		<g>
			<g>
				<path style="fill:#FFA33B;" d="M452.29,139.45c-3.82,4.73-8.29,8.92-13.27,12.41c-1.73,1.22-3.51,2.35-5.36,3.39
					c-9.4,5.32-20.26,8.35-31.83,8.35c-11.57,0-22.43-3.03-31.83-8.35c-1.85-1.04-3.64-2.17-5.36-3.38
					c-4.99-3.5-9.46-7.68-13.27-12.42c1.74-5.77,6.33-10.32,12.24-11.95l15.53-4.29l10.44-2.89l2.1-11.76l0.35-2.01l0.76-4.23
					l7.6,2.98l1.44,0.56l1.44-0.56l7.6-2.98l0.76,4.23l1.71,9.61l0.74,4.16l10.44,2.89l15.53,4.29
					C445.96,129.13,450.55,133.68,452.29,139.45z"/>
				<path style="fill:#86201B;" d="M424.52,123.21c-1.76,6.57-7.09,19.48-22.69,26.12c-15.6-6.64-20.93-19.55-22.69-26.12
					l10.44-2.89l2.1-11.76l1.11-6.24l9.04,3.54l9.04-3.54l2.47,13.84l0.74,4.16L424.52,123.21z"/>
				<path style="fill:#611714;" d="M413.34,116.16c-3.33,1.2-5.95,1.2-5.95,1.2s-9.86,0-15.71-8.8l1.11-6.24l9.04,3.54l9.04-3.54
					L413.34,116.16z"/>
				<path style="fill:#051733;" d="M421.579,63.073c-2.312-4.336-6.735-6.735-10.809-8.062c-5.796-1.887-12.084-1.887-17.879,0
					c-4.074,1.326-8.497,3.726-10.809,8.062c-4.18,8.004-3.468,20.456-3.468,20.456l4.358,4.625l18.859-2.393l18.859,2.393
					l4.358-4.625C425.047,83.529,425.759,71.078,421.579,63.073z"/>
				<path style="fill:#86201B;" d="M426.258,82.775c-0.121-0.798-0.417-1.608-1.026-2.138c-0.549-0.478-1.305-0.675-2.032-0.644
					c-0.727,0.031-1.431,0.274-2.086,0.591c0,0-0.064-18.435-6.599-18.65c-4.285-0.214-6.192,1.071-12.684,1.071
					c-6.492,0-8.399-1.286-12.684-1.071c-6.535,0.214-6.599,18.65-6.599,18.65c-0.655-0.317-1.359-0.56-2.086-0.591
					c-0.727-0.031-1.483,0.166-2.032,0.644c-0.609,0.529-0.904,1.34-1.026,2.138c-0.244,1.601,0.14,3.29,1.051,4.629
					c0.911,1.339,2.257,2.346,3.836,2.707c2.785,19.498,19.541,19.498,19.541,19.498s16.755,0,19.541-19.498
					c1.579-0.361,2.925-1.368,3.836-2.707C426.118,86.065,426.501,84.376,426.258,82.775z"/>
			</g>
			<path style="fill:#051733;" d="M408.966,105.237c0,0-2.596-0.091-4.372,2.322c0,0-0.247-2.459-2.764-2.823
				c-2.518,0.364-2.764,2.823-2.764,2.823c-1.776-2.413-4.371-2.322-4.371-2.322c-0.683,6.102,7.136,6.375,7.136,6.375
				S409.649,111.339,408.966,105.237z"/>
			<g>
				<path style="fill:#611714;" d="M400.891,80.566v11.441h1.939C406.154,92.007,401.508,81.881,400.891,80.566z"/>
				<g>
					<g>
						<path style="fill:#051733;" d="M414.988,76.109c-2.68-1.324-5.659-1.52-8.452-0.41c-1.183,0.471-0.668,2.406,0.532,1.929
							c2.289-0.91,4.686-0.891,6.911,0.208C415.131,78.405,416.145,76.68,414.988,76.109z"/>
						<circle style="fill:#051733;" cx="410.689" cy="80.566" r="1.886"/>
					</g>
					<g>
						<g>
							<path style="fill:#051733;" d="M388.672,76.109c2.68-1.324,5.659-1.52,8.452-0.41c1.183,0.471,0.668,2.406-0.532,1.929
								c-2.289-0.91-4.686-0.891-6.911,0.208C388.529,78.405,387.516,76.68,388.672,76.109z"/>
							<circle style="fill:#051733;" cx="392.971" cy="80.566" r="1.886"/>
						</g>
					</g>
				</g>
				<path style="fill:#FFFFFF;" d="M395.684,97.476c0.665,2.482,3.16,4.33,6.146,4.33s5.481-1.848,6.146-4.33H395.684z"/>
			</g>
			<g>
				<path style="fill:#FF863B;" d="M439.02,151.86c-1.73,1.22-3.51,2.35-5.36,3.39l3.34-16.48L439.02,151.86z"/>
				<path style="fill:#FF863B;" d="M370,155.25c-1.85-1.04-3.64-2.17-5.36-3.38l2.02-13.1L370,155.25z"/>
			</g>
		</g>
	</g>
	<g>
		<path style="fill:#D7EAF1;" d="M162.97,250c0,15.98-5.78,30.6-15.36,41.89c-4.02,4.75-8.72,8.91-13.95,12.33
			c-1.38,0.91-2.8,1.77-4.26,2.57c-9.26,5.11-19.91,8.01-31.23,8.01c-12.01,0-23.27-3.27-32.91-8.97c-1.36-0.8-2.69-1.65-3.98-2.56
			c-5.16-3.57-9.77-7.88-13.69-12.77c-8.89-11.09-14.21-25.17-14.21-40.5c0-35.79,29.01-64.8,64.79-64.8
			C133.96,185.2,162.97,214.21,162.97,250z"/>
		<g>
			<path style="fill:#A1CC36;" d="M147.61,291.89c-4.02,4.75-8.72,8.91-13.95,12.33c-1.38,0.91-2.8,1.77-4.26,2.57
				c-9.26,5.11-19.91,8.01-31.23,8.01c-12.01,0-23.27-3.27-32.91-8.97c-1.36-0.8-2.69-1.65-3.98-2.56
				c-5.16-3.57-9.77-7.88-13.69-12.77c2.1-4.83,6.29-8.56,11.52-10l15.53-4.29l4.82-1.33l4.25-1.18l1.37-0.38l2.03-11.4l0.42-2.37
				l0.75-4.18l0.01-0.05l0.04,0.02l9,3.52l9-3.52l0.04-0.02l0.01,0.05l0.75,4.18l1.51,8.47l0.94,5.3l1.37,0.38l4.25,1.18l4.82,1.33
				l15.53,4.29C141.27,282.08,145.75,286.39,147.61,291.89z"/>
			<path style="fill:#F69779;" d="M110.95,273.7c-1.17,6.46-6.82,11.35-13.62,11.35c-6.8,0-12.45-4.89-13.62-11.35l1.37-0.38
				l2.03-11.4l1.17-6.55l0.01-0.05l0.04,0.02l9,3.52l9-3.52l0.04-0.02l0.01,0.05l2.26,12.65l0.94,5.3L110.95,273.7z"/>
			<path style="fill:#718F26;" d="M115.2,274.88c-1.7,8.3-9.06,14.56-17.87,14.56s-16.17-6.26-17.87-14.56l4.25-1.18
				c1.17,6.46,6.82,11.35,13.62,11.35c6.8,0,12.45-4.89,13.62-11.35L115.2,274.88z"/>
			<path style="fill:#F37A67;" d="M108.64,268.02c-3.68,1.49-6.69,1.49-6.69,1.49s-8.93,0-14.84-7.59l1.17-6.55l0.01-0.05l0.04,0.02
				l9,3.52l9-3.52l0.04-0.02l0.01,0.05L108.64,268.02z"/>
			<g>
				<g>
					<path style="fill:#051733;" d="M120.273,236.529c0,0-0.647,15.804-9.597,17.138v-17.138H120.273z"/>
					<path style="fill:#051733;" d="M74.387,236.529c0,0,0.647,15.804,9.597,17.138v-17.138H74.387z"/>
				</g>
				<path style="fill:#051733;" d="M119.245,214.911c-0.699-0.683-2.496,0.584-2.496,0.584s0.799-3.096,0-3.696
					c-0.799-0.599-2.214,0.915-2.214,0.915s0.617-2.712-0.482-3.212c-1.098-0.499-2.434,0.943-2.434,0.943
					c0.261-1.154,0.038-2.24-0.669-2.64c-1.606-0.499-2.822,0.885-2.822,0.885s0.035-1.983-1.363-2.283
					c-1.398-0.3-2.528,1.025-2.528,1.025s-0.467-2.223-1.766-2.522c-1.298-0.299-2.097,1.686-2.097,1.686
					c-0.399-2.208-3.045-3.383-3.045-3.383s-2.646,1.175-3.045,3.383c0,0-0.799-1.985-2.097-1.686
					c-1.298,0.299-1.766,2.522-1.766,2.522s-1.13-1.324-2.528-1.025c-1.398,0.299-1.363,2.283-1.363,2.283s-1.216-1.384-2.822-0.885
					c-0.707,0.399-0.931,1.486-0.669,2.64c0,0-1.336-1.442-2.434-0.943c-1.098,0.499-0.482,3.212-0.482,3.212
					s-1.415-1.514-2.214-0.915c-0.799,0.599,0,3.696,0,3.696s-1.797-1.267-2.496-0.584c-0.699,0.683-2.404,12.1-1.302,21.618
					l4.358,4.625l18.859-2.393l18.859,2.393l4.358-4.625C121.65,227.011,119.944,215.594,119.245,214.911z"/>
				<path style="fill:#F69779;" d="M121.758,235.775c-0.121-0.798-0.417-1.608-1.026-2.137c-0.549-0.477-1.305-0.675-2.032-0.644
					c-0.727,0.031-1.431,0.274-2.086,0.591c0,0-0.064-18.435-6.599-18.65c-4.285-0.214-6.192,1.071-12.684,1.071
					c-6.493,0-8.399-1.286-12.684-1.071c-6.535,0.214-6.599,18.65-6.599,18.65c-0.655-0.317-1.359-0.56-2.086-0.591
					c-0.727-0.031-1.483,0.166-2.032,0.644c-0.609,0.529-0.904,1.34-1.026,2.137c-0.244,1.602,0.14,3.29,1.051,4.629
					c0.911,1.339,2.257,2.346,3.836,2.707C80.575,262.61,97.33,262.61,97.33,262.61s16.755,0,19.541-19.498
					c1.579-0.361,2.925-1.368,3.836-2.707S122.001,237.376,121.758,235.775z"/>
				<path style="fill:#051733;" d="M97.33,242.741c-11.149,0-12.699,4.889-11.901,5.657c0.798,0.767,3.991-1.067,3.991-1.067
					s0.399,1.197,1.297,1.055c0.898-0.143,1.497-1.255,1.497-1.255s0.399,1.098,1.197,1.242c0.798,0.145,1.397-1.043,1.397-1.043
					s0.898,1.297,1.677,0.998c0.779-0.299,0.844-1.597,0.844-1.597s0.065,1.297,0.844,1.597c0.779,0.299,1.677-0.998,1.677-0.998
					s0.599,1.187,1.397,1.043c0.798-0.145,1.197-1.242,1.197-1.242s0.599,1.112,1.497,1.255c0.898,0.143,1.297-1.055,1.297-1.055
					s3.193,1.834,3.991,1.067C110.029,247.631,108.479,242.741,97.33,242.741z"/>
			</g>
			<g>
				<path style="fill:#F37A67;" d="M96.391,230.936v11.441h1.939C101.653,242.376,97.008,232.25,96.391,230.936z"/>
				<g>
					<g>
						<path style="fill:#051733;" d="M110.488,226.478c-2.68-1.324-5.659-1.52-8.452-0.41c-1.183,0.471-0.668,2.406,0.532,1.928
							c2.289-0.91,4.686-0.891,6.911,0.208C110.631,228.774,111.645,227.049,110.488,226.478z"/>
						<circle style="fill:#051733;" cx="106.189" cy="230.936" r="1.886"/>
					</g>
					<g>
						<path style="fill:#051733;" d="M84.172,226.478c2.68-1.324,5.659-1.52,8.452-0.41c1.183,0.471,0.668,2.406-0.532,1.928
							c-2.289-0.91-4.686-0.891-6.911,0.208C84.029,228.774,83.016,227.049,84.172,226.478z"/>
						<circle style="fill:#051733;" cx="88.471" cy="230.936" r="1.886"/>
					</g>
				</g>
				<path style="fill:#FFFFFF;" d="M91.185,249.845c0.665,2.482,3.16,4.33,6.146,4.33c2.985,0,5.481-1.848,6.145-4.33H91.185z"/>
			</g>
			<g>
				<path style="fill:#718F26;" d="M133.66,304.22c-1.38,0.91-2.8,1.77-4.26,2.57v-17.35L133.66,304.22z"/>
				<path style="fill:#718F26;" d="M65.26,289.44v16.39c-1.36-0.8-2.69-1.65-3.98-2.56L65.26,289.44z"/>
			</g>
		</g>
	</g>
	<g>
		<path style="fill:#D7EAF1;" d="M314.8,250c0,18.71-7.93,35.57-20.62,47.41c-3.62,3.37-7.63,6.34-11.96,8.83
			c-0.64,0.37-1.29,0.72-1.94,1.06c-9.04,4.79-19.34,7.5-30.28,7.5s-21.24-2.71-30.28-7.5c-0.65-0.34-1.3-0.69-1.94-1.06
			c-4.33-2.49-8.34-5.46-11.96-8.83c-12.69-11.84-20.62-28.7-20.62-47.41c0-35.79,29.01-64.8,64.8-64.8S314.8,214.21,314.8,250z"/>
		<g>
			<g>
				<g>
					<path style="fill:#662D8E;" d="M294.18,297.41c-3.62,3.37-7.63,6.34-11.96,8.83c-0.64,0.37-1.29,0.72-1.94,1.06
						c-9.04,4.79-19.34,7.5-30.28,7.5s-21.24-2.71-30.28-7.5c-0.65-0.34-1.3-0.69-1.94-1.06c-4.33-2.49-8.34-5.46-11.96-8.83
						c3.24-4.35,7.67-7.74,12.82-9.72l5.63-2.17l0.34-0.13c3.05-1.17,5.79-2.89,8.13-5.04c2.15-1.97,3.96-4.3,5.34-6.89
						c1.13-2.12,1.96-4.42,2.47-6.84l0.52-2.53v-0.01l0.75-3.62c0.01,0,0.01,0,0.01,0l1.06-5.14h14.22l1.06,5.14l1.28,6.16
						c0.09,0.42,0.19,0.84,0.3,1.26c0.09,0.35,0.19,0.7,0.3,1.04c0.05,0.2,0.12,0.41,0.2,0.61c0.07,0.26,0.16,0.52,0.27,0.78
						c0.02,0.07,0.04,0.14,0.08,0.21c0.13,0.37,0.27,0.73,0.43,1.08c0.01,0.02,0.02,0.05,0.03,0.07c0,0.01,0.01,0.01,0.01,0.02
						c0.2,0.46,0.41,0.92,0.64,1.36c0.06,0.14,0.14,0.28,0.21,0.41c0.15,0.28,0.3,0.55,0.46,0.82c0.03,0.05,0.06,0.11,0.1,0.17
						c0.24,0.41,0.49,0.82,0.75,1.21l0.01,0.01c0.26,0.38,0.52,0.76,0.8,1.12c0.05,0.07,0.1,0.14,0.15,0.2
						c0.25,0.33,0.51,0.65,0.77,0.96c0.57,0.68,1.18,1.33,1.82,1.94c0.23,0.23,0.47,0.45,0.71,0.66c0.27,0.25,0.54,0.48,0.82,0.71
						c2.1,1.73,4.48,3.13,7.08,4.13l0.34,0.13l5.63,2.17C286.51,289.67,290.94,293.06,294.18,297.41z"/>
					<path style="fill:#F69779;" d="M268.31,281.26c-13.39,9.97-18.31,29.72-18.31,29.72c-2.12-10.5-11.45-23.39-17.26-30.63
						c3.92-3.59,6.69-8.37,7.81-13.73l0.52-2.54l1.82-8.76h14.22l2.34,11.3c0.37,1.76,0.91,3.45,1.61,5.05
						C262.69,275.41,265.18,278.69,268.31,281.26z"/>
					<g>
						<g>
							<path style="fill:#F37A67;" d="M261.06,271.67c-2.66,0.76-4.59,0.76-4.59,0.76s-9.52,0-15.4-8.35l1.82-8.76h14.22l2.34,11.3
								C259.82,268.38,260.36,270.07,261.06,271.67z"/>
						</g>
					</g>
					<g>
						<g>
							<g>
								<path style="fill:#E44424;" d="M260.77,204.578c0,0,9.942-0.678,14.213,7.22h-1.236c0,0,2.564,2.409,3.332,8.567
									l-1.152-1.339c0,0,5.759,27.44-9.151,31.589l-10.302-43.1L260.77,204.578z"/>
							</g>
							<g>
								<path style="fill:#E44424;" d="M239.23,204.578c0,0-9.942-0.678-14.213,7.22h1.236c0,0-2.564,2.409-3.332,8.567l1.152-1.339
									c0,0-5.759,27.44,9.151,31.589l10.302-43.1L239.23,204.578z"/>
							</g>
						</g>
					</g>
					<g>
						<g>
							<path style="fill:#F69779;" d="M274.428,235.775c-0.122-0.798-0.417-1.608-1.026-2.137c-0.549-0.477-1.305-0.675-2.032-0.644
								c-0.727,0.031-1.431,0.274-2.086,0.591c0,0-0.064-18.435-6.599-18.65c-4.285-0.214-6.192,1.071-12.684,1.071
								c-6.493,0-8.399-1.286-12.684-1.071c-6.535,0.214-6.599,18.65-6.599,18.65c-0.655-0.317-1.359-0.56-2.086-0.591
								c-0.727-0.031-1.483,0.166-2.032,0.644c-0.609,0.529-0.905,1.34-1.026,2.137c-0.244,1.602,0.139,3.29,1.051,4.629
								c0.911,1.339,2.257,2.346,3.836,2.707C233.245,262.61,250,262.61,250,262.61s16.755,0,19.541-19.498
								c1.579-0.361,2.925-1.368,3.836-2.707S274.671,237.376,274.428,235.775z"/>
						</g>
					</g>
				</g>
				<g>
					<g>
						<path style="fill:#472063;" d="M270.572,288h-2.256c0,0-12.283,5.823-18.316,22.981c0,0,5.146-26.8,13.486-34.153L270.572,288
							z"/>
						<path style="fill:#9341CC;" d="M261.865,273.159c0,0,2.509,13.31,7.832,15.761c5.324,2.451,9.582,2.288,9.582,2.288
							s-2.789-3.291-4.251-7.414c-1.126-3.176-3.208-6.015-6.224-7.872C267.01,274.818,264.723,273.797,261.865,273.159z"/>
					</g>
					<g>
						<path style="fill:#472063;" d="M229.428,288h2.256c0,0,12.283,5.823,18.316,22.981c0,0-5.146-26.8-13.486-34.153L229.428,288z
							"/>
						<path style="fill:#9341CC;" d="M238.135,273.159c0,0-2.509,13.31-7.832,15.761c-5.323,2.451-9.582,2.288-9.582,2.288
							s2.789-3.291,4.251-7.414c1.126-3.176,3.208-6.015,6.224-7.872C232.99,274.818,235.276,273.797,238.135,273.159z"/>
					</g>
				</g>
				<path style="fill:#E44424;" d="M263.541,212.86c0,0-0.136-12.158-12.665-12.414c-9.26,0-20.082,10.111-27.813,10.495
					c0,0,0.417,2.813,3.572,2.816l-3.572,2.304c0,0,2.393,1.931,6.432,0.768l-5.117,2.816c0,0,4.98,1.408,9.338-0.64l-5.039,3.583
					c0,0,3.866,0.686,9.509,0.145c8.195-0.785,12.961-8.592,25.353-7.643V212.86z"/>
				<g>
					<path style="fill:#472063;" d="M282.22,306.24c-0.64,0.37-1.29,0.72-1.94,1.06v-6.63L282.22,306.24z"/>
					<path style="fill:#472063;" d="M219.72,300.67v6.63c-0.65-0.34-1.3-0.69-1.94-1.06L219.72,300.67z"/>
				</g>
			</g>
			<g>
				<path style="fill:#F37A67;" d="M249.061,232.626v11.441H251C254.323,244.067,249.678,233.941,249.061,232.626z"/>
				<g>
					<g>
						<path style="fill:#E44424;" d="M263.158,228.169c-2.68-1.324-5.658-1.52-8.452-0.41c-1.183,0.471-0.668,2.406,0.532,1.929
							c2.289-0.91,4.686-0.891,6.911,0.208C263.301,230.465,264.314,228.74,263.158,228.169z"/>
						<path style="fill:#051733;" d="M260.745,231.732c-0.609-1.056-1.886-0.992-1.886-0.992c-1.042,0-1.886,0.844-1.886,1.886
							s0.844,1.886,1.886,1.886c0.23,0,0.447-0.047,0.651-0.122l0.001,0.005c0.012-0.004,0.021-0.011,0.033-0.016
							c0.061-0.024,0.118-0.054,0.175-0.084c1.649-0.715,1.825-2.546,1.825-2.546C261.216,232.027,260.745,231.732,260.745,231.732z
							"/>
					</g>
					<g>
						<path style="fill:#E44424;" d="M236.842,228.169c2.68-1.324,5.659-1.52,8.452-0.41c1.183,0.471,0.668,2.406-0.532,1.929
							c-2.289-0.91-4.686-0.891-6.911,0.208C236.699,230.465,235.686,228.74,236.842,228.169z"/>
						<path style="fill:#051733;" d="M239.255,231.732c0.609-1.056,1.886-0.992,1.886-0.992c1.042,0,1.886,0.844,1.886,1.886
							s-0.844,1.886-1.886,1.886c-0.23,0-0.447-0.047-0.651-0.122l-0.001,0.005c-0.012-0.004-0.021-0.011-0.033-0.016
							c-0.061-0.024-0.118-0.054-0.176-0.084c-1.649-0.715-1.825-2.546-1.825-2.546
							C238.784,232.027,239.255,231.732,239.255,231.732z"/>
					</g>
				</g>
				<path style="fill:#FFFFFF;" d="M243.854,250.154c0.665,2.482,3.16,4.33,6.146,4.33c2.985,0,5.481-1.848,6.146-4.33H243.854z"/>
			</g>
		</g>
	</g>
	<g>
		<path style="fill:#D7EAF1;" d="M466.62,250c0,15.64-5.54,29.99-14.77,41.18c-4.38,5.32-9.6,9.93-15.45,13.63
			c-1.04,0.66-2.09,1.29-3.17,1.88c-9.3,5.17-20.01,8.11-31.4,8.11c-11.39,0-22.1-2.94-31.4-8.11c-1.08-0.59-2.14-1.22-3.17-1.88
			c-5.86-3.69-11.07-8.3-15.45-13.62c-9.24-11.19-14.78-25.54-14.78-41.19c0-35.79,29.01-64.8,64.8-64.8
			C437.61,185.2,466.62,214.21,466.62,250z"/>
		<g>
			<g>
				<path style="fill:#0C415B;" d="M451.85,291.18c-4.38,5.32-9.6,9.93-15.45,13.63c-1.04,0.66-2.09,1.29-3.17,1.88
					c-9.3,5.17-20.01,8.11-31.4,8.11c-11.39,0-22.1-2.94-31.4-8.11c-1.08-0.59-2.14-1.22-3.17-1.88
					c-5.86-3.69-11.07-8.3-15.45-13.62c1.99-5.17,6.33-9.18,11.8-10.69l15.53-4.29l2.34-0.65l5.23-1.44l2.87-0.8l2.25-12.61
					l0.2-1.15l0.76-4.24l1.16,0.46l7.88,3.08l7.88-3.08l1.16-0.46l0.76,4.24l2.01,11.3l0.44,2.46l2.93,0.81l5.15,1.43l2.36,0.65
					l15.53,4.29C445.52,282.01,449.85,286.02,451.85,291.18z"/>
				<path style="fill:#1D627D;" d="M422.18,276.11c0,6.57-9.11,11.89-20.35,11.89c-11.24,0-20.35-5.32-20.35-11.89v-0.55l5.23-1.44
					l2.87-0.8l3.21-18l9.04,3.54l9.04-3.54l3.21,18l2.93,0.81l5.15,1.43C422.17,275.74,422.18,275.93,422.18,276.11z"/>
				<path style="fill:#86201B;" d="M417.01,274.13l-0.25,1.98c0,2.02-5.82,5.89-14.93,5.89c-9.11,0-14.93-3.87-14.93-5.89
					l-0.19-1.99l2.87-0.8l2.25-12.61l0.96-5.39l9.04,3.54l9.04-3.54l2.77,15.54l0.44,2.46L417.01,274.13z"/>
				<path style="fill:#611714;" d="M413.64,270.86c-2.79,0.83-4.84,0.83-4.84,0.83s-11.43,0-16.97-10.98l0.96-5.39l9.04,3.54
					l9.04-3.54L413.64,270.86z"/>
				<path style="fill:#051733;" d="M423.236,214.911c-3.663-7.073-21.376-6.718-21.376-6.718v0.001v-0.001
					c0,0-17.713-0.355-21.376,6.718c-3.017,6.211-2.632,36.7,6.226,37.562h15.625h3.555h11.12
					C425.867,251.611,426.252,221.122,423.236,214.911z"/>
				<path style="fill:#86201B;" d="M425.21,240.4c-0.91,1.34-2.26,2.35-3.84,2.71c-0.15,1.08-0.35,2.11-0.59,3.07
					c-4,16.43-18.95,16.43-18.95,16.43s-14.95,0-18.95-16.43c-0.24-0.96-0.44-1.99-0.59-3.07c-1.58-0.36-2.93-1.37-3.84-2.71
					c-0.91-1.34-1.29-3.02-1.05-4.63c0.12-0.79,0.42-1.6,1.03-2.13c0.55-0.48,1.3-0.68,2.03-0.65c0.69,0.03,1.35,0.25,1.98,0.55
					c0.04,0.02,0.07,0.03,0.11,0.05c0,0,0-1.44,0.16-3.53c0.38-5.36,1.73-14.97,6.44-15.12c4.28-0.22,6.19,1.07,12.68,1.07
					c6.49,0,8.4-1.29,12.68-1.07c4.71,0.15,6.06,9.76,6.44,15.12c0.16,2.09,0.16,3.53,0.16,3.53c0.04-0.02,0.07-0.03,0.11-0.05
					c0.63-0.3,1.29-0.52,1.98-0.55c0.73-0.03,1.48,0.17,2.03,0.65c0.61,0.53,0.91,1.34,1.03,2.13
					C426.5,237.38,426.12,239.06,425.21,240.4z"/>
			</g>
			<path style="fill:#051733;" d="M421.22,233.54l-0.14,9.57l-0.3,3.07c-4,16.43-18.95,16.43-18.95,16.43s-14.95,0-18.95-16.43
				l-0.3-3.07l-0.14-9.57c0.04,0.02,0.07,0.03,0.11,0.05c0,0,0-1.44,0.16-3.53c0.85,1.24,3.06,5.36,3.06,14.66
				c0,0,3.51,0.86,4.99,4.09c1.49,3.23,1.87,10.05,11.07,10.05c9.2,0,9.58-6.82,11.07-10.05c1.48-3.23,4.99-4.09,4.99-4.09
				c0-9.3,2.21-13.42,3.06-14.66c0.16,2.09,0.16,3.53,0.16,3.53C421.15,233.57,421.18,233.56,421.22,233.54z"/>
			<path style="fill:#051733;" d="M404.646,243.1c-1.645-0.017-2.437,0.639-2.816,1.214c-0.379-0.574-1.171-1.231-2.816-1.214
				c-2.179,0.023-7.326,2.047-7.326,2.047h9.804h0.676h9.804C411.972,245.147,406.824,243.123,404.646,243.1z"/>
			<g>
				<path style="fill:#611714;" d="M400.891,230.937v11.441h1.939C406.154,242.378,401.508,232.252,400.891,230.937z"/>
				<g>
					<g>
						<path style="fill:#051733;" d="M414.988,226.48c-2.68-1.324-5.659-1.52-8.452-0.41c-1.183,0.471-0.668,2.406,0.532,1.929
							c2.289-0.91,4.686-0.891,6.911,0.208C415.131,228.776,416.144,227.051,414.988,226.48z"/>
						<circle style="fill:#051733;" cx="410.689" cy="230.937" r="1.886"/>
					</g>
					<g>
						<g>
							<path style="fill:#051733;" d="M388.672,226.48c2.68-1.324,5.659-1.52,8.452-0.41c1.183,0.471,0.668,2.406-0.532,1.929
								c-2.289-0.91-4.686-0.891-6.911,0.208C388.529,228.776,387.516,227.051,388.672,226.48z"/>
							<circle style="fill:#051733;" cx="392.971" cy="230.937" r="1.886"/>
						</g>
					</g>
				</g>
				<path style="fill:#FFFFFF;" d="M395.684,247.847c0.665,2.482,3.16,4.33,6.146,4.33s5.481-1.848,6.146-4.33H395.684z"/>
			</g>
			<g>
				<path style="fill:#051733;" d="M436.4,304.81c-1.04,0.66-2.09,1.29-3.17,1.88l1.28-12.79L436.4,304.81z"/>
				<path style="fill:#051733;" d="M370.43,306.69c-1.08-0.59-2.14-1.22-3.17-1.88l1.89-10.91L370.43,306.69z"/>
			</g>
		</g>
	</g>
	<g>
		<path style="fill:#D7EAF1;" d="M162.97,401.19c0,15.71-5.59,30.12-14.9,41.34c-3.85,4.64-8.34,8.74-13.33,12.16
			c-0.87,0.6-1.76,1.18-2.67,1.73c-9.82,6.05-21.37,9.54-33.74,9.57h-0.16c-0.62,0-1.23-0.01-1.84-0.03
			c-12.44-0.34-24.01-4.2-33.74-10.62c-0.83-0.54-1.65-1.1-2.45-1.69c-4.95-3.58-9.36-7.86-13.11-12.68
			c-8.56-10.98-13.65-24.79-13.65-39.78c0-35.78,29.01-64.79,64.79-64.79C133.96,336.4,162.97,365.41,162.97,401.19z"/>
		<g>
			<g>
				<g>
					<path style="fill:#1DACAC;" d="M148.07,442.53c-3.85,4.64-8.34,8.74-13.33,12.16c-0.87,0.6-1.76,1.18-2.67,1.73
						c-9.82,6.05-21.37,9.54-33.74,9.57h-0.16c-0.62,0-1.23-0.01-1.84-0.03c-12.44-0.34-24.01-4.2-33.74-10.62
						c-0.83-0.54-1.65-1.1-2.45-1.69c-4.95-3.58-9.36-7.86-13.11-12.68c1.84-5.54,6.34-9.89,12.08-11.47l14.64-4.04l0.89-0.25
						l5.01-1.39l2.64-0.73l2.79-0.77l0.48-2.67v-0.01l1.71-9.62l0.26-1.47l0.76-4.23l9.04,3.54l9.04-3.54l0.76,4.23l1.55,8.73
						l0.42,2.37v0.01l0.48,2.66l2.79,0.77l2.64,0.73l5.01,1.39l0.89,0.25l14.64,4.04C141.82,431.23,146.61,436.25,148.07,442.53z"/>
					<g>
						<path style="fill:#007289;" d="M98.33,447.16v18.83h-0.16c-0.62,0-1.23-0.01-1.84-0.03v-18.8c0-0.56,0.45-1,1-1
							C97.88,446.16,98.33,446.6,98.33,447.16z"/>
					</g>
					<polygon style="fill:#01243A;" points="109.58,422.32 97.33,421.384 85.08,422.32 83.507,424.987 87.248,435.475 
						97.33,452.472 107.412,435.475 111.153,424.987 					"/>
				</g>
				<path style="fill:#F69779;" d="M109.58,422.32c0,0-1.26,7.35-12.25,7.35s-12.25-7.35-12.25-7.35l2.19-12.3l1.02-5.7l9.04,3.54
					l9.04-3.54l2.31,12.96L109.58,422.32z"/>
				<path style="fill:#F37A67;" d="M108.68,417.28c-3.33,1.2-5.94,1.2-5.94,1.2s-9.6,0-15.47-8.46l1.02-5.7l9.04,3.54l9.04-3.54
					L108.68,417.28z"/>
				<g>
					<g>
						<path style="fill:#007289;" d="M116.419,426.924l-2.266,4.645L97.33,452.472c0,0,2.07-13.724,7.744-20.058
							c5.674-6.334,3.85-13.935,3.85-13.935S114.949,421.39,116.419,426.924z"/>
						<path style="fill:#69C7C2;" d="M108.925,418.479c0,0,5.002,3.378,5.229,13.09l9.76,2.323
							C123.914,433.892,121.4,417.423,108.925,418.479z"/>
					</g>
					<g>
						<path style="fill:#007289;" d="M78.241,426.924l2.266,4.645l16.824,20.902c0,0-2.07-13.724-7.744-20.058
							c-5.674-6.334-3.85-13.935-3.85-13.935S79.711,421.39,78.241,426.924z"/>
						<path style="fill:#69C7C2;" d="M85.735,418.479c0,0-5.002,3.378-5.229,13.09l-9.76,2.323
							C70.746,433.892,73.26,417.423,85.735,418.479z"/>
					</g>
				</g>
				<path style="fill:#E44424;" d="M117.079,365.073c-2.312-4.336-6.735-6.735-10.809-8.061c-4.299-1.4-8.868-1.756-13.307-1.079
					c-0.987-1.569-2.348-1.897-3.43-1.68c-1.556,0.311-1.229,2.843-1.229,2.843s-1.261-2.428-2.713-2.117s-1.645,2.917-1.645,2.917
					s-1.572-1.465-3.025-0.531c-0.959,0.616-0.713,1.633-0.147,3.763c-1.257,1.096-2.363,2.392-3.192,3.945
					c-4.18,8.004-3.468,20.456-3.468,20.456c2.683,15.915,8.619,18.791,8.619,18.791H97.33h14.598c0,0,5.937-2.876,8.619-18.791
					C120.547,385.529,121.259,373.078,117.079,365.073z"/>
				<path style="fill:#F69779;" d="M121.758,384.775c-0.121-0.798-0.417-1.608-1.026-2.138c-0.549-0.478-1.305-0.675-2.032-0.644
					c-0.727,0.031-1.431,0.274-2.086,0.591c0,0-0.064-18.435-6.599-18.65c-4.285-0.214-6.192,1.071-12.684,1.071
					c-6.493,0-8.399-1.286-12.684-1.071c-6.535,0.214-6.599,18.65-6.599,18.65c-0.655-0.317-1.359-0.56-2.086-0.591
					c-0.727-0.031-1.483,0.166-2.032,0.644c-0.609,0.529-0.904,1.34-1.026,2.138c-0.244,1.602,0.14,3.29,1.051,4.629
					c0.911,1.339,2.257,2.346,3.836,2.707C80.575,411.61,97.33,411.61,97.33,411.61s16.755,0,19.541-19.498
					c1.579-0.361,2.925-1.368,3.836-2.707C121.618,388.065,122.001,386.376,121.758,384.775z"/>
			</g>
			<g>
				<path style="fill:#007289;" d="M134.74,454.69c-0.87,0.6-1.76,1.18-2.67,1.73v-14.55L134.74,454.69z"/>
				<path style="fill:#007289;" d="M62.59,441.87v13.47c-0.83-0.54-1.65-1.1-2.45-1.69L62.59,441.87z"/>
			</g>
			<g>
				<path style="fill:#F37A67;" d="M96.391,381.73v11.441h1.939C101.653,393.171,97.008,383.045,96.391,381.73z"/>
				<g>
					<g>
						<path style="fill:#E44424;" d="M110.488,377.273c-2.68-1.324-5.659-1.52-8.452-0.41c-1.183,0.471-0.668,2.406,0.532,1.929
							c2.289-0.91,4.686-0.891,6.911,0.208C110.631,379.569,111.645,377.844,110.488,377.273z"/>
						<circle style="fill:#051733;" cx="106.189" cy="381.73" r="1.886"/>
					</g>
					<g>
						<path style="fill:#E44424;" d="M84.172,377.273c2.68-1.324,5.659-1.52,8.452-0.41c1.183,0.471,0.668,2.406-0.532,1.929
							c-2.289-0.91-4.686-0.891-6.911,0.208C84.029,379.569,83.016,377.844,84.172,377.273z"/>
						<circle style="fill:#051733;" cx="88.471" cy="381.73" r="1.886"/>
					</g>
				</g>
				<path style="fill:#FFFFFF;" d="M91.185,397.845c0.665,2.482,3.16,4.33,6.146,4.33c2.985,0,5.481-1.848,6.145-4.33H91.185z"/>
			</g>
		</g>
	</g>
	<g>
		<path style="fill:#D7EAF1;" d="M466.62,401.19c0,7.62-1.31,14.93-3.73,21.72c-3.69,10.37-9.94,19.52-17.99,26.68
			c-1.84,1.65-3.77,3.18-5.79,4.6c-10.54,7.44-23.4,11.8-37.28,11.8c-13.88,0-26.74-4.36-37.29-11.8c-2.02-1.42-3.95-2.96-5.79-4.6
			c-8.05-7.16-14.3-16.31-17.98-26.67c-2.42-6.79-3.74-14.11-3.74-21.73c0-35.78,29.01-64.79,64.8-64.79
			C437.61,336.4,466.62,365.41,466.62,401.19z"/>
		<g>
			<g>
				<path style="fill:#BD948F;" d="M462.89,422.91c-3.69,10.37-9.94,19.52-17.99,26.68c-1.84,1.65-3.77,3.18-5.79,4.6
					c-10.54,7.44-23.4,11.8-37.28,11.8c-13.88,0-26.74-4.36-37.29-11.8c-2.02-1.42-3.95-2.96-5.79-4.6
					c-8.05-7.16-14.3-16.31-17.98-26.67c3.36-7.36,9.94-12.83,17.93-14.73l15.82-3.76l4.1-0.97l4.32-1.03l0.44-0.1l8.07-1.92
					l8.75,0.66h0.01l1.62,0.12l1.62-0.12h0.01l8.74-0.66l8.08,1.92l4.75,1.13l4.1,0.97l15.83,3.76
					C452.93,410.09,459.52,415.56,462.89,422.91z"/>
				<path style="fill:#3D3936;" d="M429.13,404.43c0,8.53-12.22,15.44-27.3,15.44c-15.08,0-27.31-6.91-27.31-15.44l4.1-0.97
					l12.83-3.05l10.38,0.78l10.37-0.78l12.83,3.05L429.13,404.43z"/>
				<path style="fill:#F69779;" d="M425.13,404.43c0,5.41-9.57,11.44-23.3,11.44c-2.1,0-4.11-0.14-6-0.41
					c-10.45-1.42-17.31-6.45-17.31-11.03c0-0.32,0.03-0.65,0.1-0.97l4.32-1.03l8.51-2.02l10.38,0.78l10.37-0.78l12.83,3.05
					C425.1,403.78,425.13,404.11,425.13,404.43z"/>
				<path style="fill:#F37A67;" d="M425.13,404.43c0,5.41-9.57,11.44-23.3,11.44c-2.1,0-4.11-0.14-6-0.41
					c-0.98-0.45-1.98-1.01-2.97-1.68c-5.64-1.23-9.84-5.83-9.92-11.35l8.51-2.02l10.38,0.78l10.37-0.78l12.83,3.05
					C425.1,403.78,425.13,404.11,425.13,404.43z"/>
			</g>
			<g>
				<path style="fill:#051733;" d="M421.579,364.548c-2.312-4.096-6.735-6.362-10.809-7.615c-5.796-1.782-12.084-1.782-17.879,0
					c-4.074,1.253-8.497,3.519-10.809,7.615c-4.18,7.561-3.468,19.322-3.468,19.322l0,0l-0.01,0
					c0.418,8.43,4.159,14.796,4.159,14.796h38.127c0,0,3.741-6.366,4.159-14.796C425.047,383.871,425.759,372.109,421.579,364.548z"
					/>
				<path style="fill:#F69779;" d="M426.258,384.775c-0.121-0.798-0.417-1.608-1.026-2.138c-0.549-0.478-1.305-0.675-2.032-0.644
					c-0.727,0.031-1.431,0.274-2.086,0.591c0,0-0.064-18.435-6.599-18.65c-4.285-0.214-6.192,1.071-12.684,1.071
					c-6.492,0-8.399-1.286-12.684-1.071c-6.535,0.214-6.599,18.65-6.599,18.65c-0.655-0.317-1.359-0.56-2.086-0.591
					c-0.727-0.031-1.483,0.166-2.032,0.644c-0.609,0.529-0.904,1.34-1.026,2.138c-0.244,1.602,0.14,3.29,1.051,4.629
					c0.911,1.339,2.257,2.346,3.836,2.707c0.007,0.049,0.017,0.094,0.025,0.143c-0.428,1.223-0.672,2.533-0.672,3.902
					c0,5.587,3.875,10.258,9.081,11.501c5.333,3.946,11.107,3.951,11.107,3.951s5.775-0.006,11.108-3.951
					c5.206-1.244,9.081-5.915,9.081-11.501c0-1.369-0.244-2.679-0.672-3.902c0.007-0.049,0.017-0.094,0.024-0.143
					c1.579-0.361,2.925-1.368,3.836-2.707C426.118,388.065,426.501,386.376,426.258,384.775z"/>
			</g>
			<g>
				<path style="fill:#9C7672;" d="M444.9,449.59c-1.84,1.65-3.77,3.18-5.79,4.6v-27.01C443.87,434.79,444.19,442.16,444.9,449.59z"
					/>
				<path style="fill:#9C7672;" d="M364.54,427.18v27.01c-2.02-1.42-3.95-2.96-5.79-4.6C359.46,442.16,359.78,434.79,364.54,427.18z
					"/>
			</g>
			<g>
				<path style="fill:#F37A67;" d="M400.891,380.819v11.441h1.939C406.154,392.26,401.508,382.134,400.891,380.819z"/>
				<g>
					<g>
						<path style="fill:#051733;" d="M414.988,376.362c-2.68-1.324-5.658-1.52-8.452-0.41c-1.184,0.471-0.668,2.406,0.532,1.929
							c2.289-0.91,4.686-0.891,6.911,0.208C415.131,378.658,416.145,376.933,414.988,376.362z"/>
						<circle style="fill:#051733;" cx="410.689" cy="380.819" r="1.886"/>
					</g>
					<g>
						<path style="fill:#051733;" d="M388.672,376.362c2.68-1.324,5.658-1.52,8.452-0.41c1.184,0.471,0.668,2.406-0.532,1.929
							c-2.289-0.91-4.686-0.891-6.911,0.208C388.529,378.658,387.516,376.933,388.672,376.362z"/>
						<circle style="fill:#051733;" cx="392.971" cy="380.819" r="1.886"/>
					</g>
				</g>
				<path style="fill:#FFFFFF;" d="M395.684,396.934c0.665,2.482,3.16,4.33,6.146,4.33s5.481-1.848,6.146-4.33H395.684z"/>
			</g>
			<g>
				<path style="fill:#F37A67;" d="M421.033,385.773c0.113-0.539,0.507-1.011,1.017-1.219c0.456-0.186,0.99-0.16,1.434,0.054
					c0.444,0.214,0.792,0.61,0.964,1.072c0.269,0.723,0.09,1.576-0.394,2.177c-0.483,0.601-2.252,1.204-3.021,1.263V385.773z"/>
				<path style="fill:#F37A67;" d="M382.628,385.773c-0.113-0.539-0.507-1.011-1.018-1.219c-0.456-0.186-0.99-0.16-1.434,0.054
					s-0.792,0.61-0.964,1.072c-0.269,0.723-0.09,1.576,0.394,2.177c0.483,0.601,2.252,1.204,3.021,1.263V385.773z"/>
			</g>
		</g>
	</g>
	<g>
		<path style="fill:#D7EAF1;" d="M314.8,401.19c0,16.29-6.01,31.19-15.95,42.58c-1.19,1.37-2.44,2.69-3.75,3.95
			c-1.3,1.26-2.65,2.46-4.05,3.61c-3.12,2.57-6.49,4.84-10.07,6.79c-1.11,0.61-2.23,1.18-3.38,1.71c-8.37,3.95-17.73,6.16-27.6,6.16
			s-19.23-2.21-27.6-6.16c-1.15-0.53-2.27-1.1-3.38-1.71c-3.58-1.95-6.95-4.22-10.07-6.79c-1.4-1.15-2.75-2.35-4.05-3.61
			c-1.31-1.26-2.56-2.58-3.75-3.95c-9.94-11.39-15.95-26.29-15.95-42.58c0-35.78,29.01-64.79,64.8-64.79S314.8,365.41,314.8,401.19z
			"/>
		<g>
			<g>
				<path style="fill:#051733;" d="M298.85,443.77c-1.19,1.37-2.44,2.69-3.75,3.95c-1.3,1.26-2.65,2.46-4.05,3.61h-82.1
					c-1.4-1.15-2.75-2.35-4.05-3.61c-1.31-1.26-2.56-2.58-3.75-3.95c1.2-4.68,3.81-10.52,9.53-14.41c1.71-1.16,3.19-2.72,4.47-4.57
					c5.89-8.43,7.69-22.91,8.41-33.48c0.13-1.89,0.23-3.65,0.31-5.23c0.35-6.9,1.36-16.25,6.16-23.31
					c3.78-5.57,9.93-9.71,19.97-10.07c22.74,0.82,25.51,21.02,26.13,33.38c0.62,12.37,2.27,35.86,13.19,43.28
					C295.04,433.25,297.65,439.09,298.85,443.77z"/>
				<path style="fill:#F03832;" d="M295.1,447.72c-1.3,1.26-2.65,2.46-4.05,3.61c-3.12,2.57-6.49,4.84-10.07,6.79
					c-1.11,0.61-2.23,1.18-3.38,1.71c-8.37,3.95-17.73,6.16-27.6,6.16s-19.23-2.21-27.6-6.16c-1.15-0.53-2.27-1.1-3.38-1.71
					c-3.58-1.95-6.95-4.22-10.07-6.79c-1.4-1.15-2.75-2.35-4.05-3.61c2.9-4.39,6.96-7.92,11.76-10.18h0.01
					c0.64-0.31,1.3-0.59,1.97-0.85l5.97-2.3c1.24-0.48,2.44-1.05,3.57-1.7c1.07-0.62,2.09-1.31,3.06-2.07
					c0.19-0.15,0.38-0.3,0.57-0.46c0.17-0.14,0.33-0.27,0.49-0.42c0.22-0.19,0.44-0.39,0.65-0.59c0.15-0.13,0.29-0.26,0.43-0.4
					s0.28-0.28,0.41-0.42c0.33-0.34,0.65-0.69,0.96-1.04c0.16-0.18,0.32-0.36,0.46-0.54c0.15-0.19,0.29-0.37,0.44-0.56
					c0.16-0.18,0.3-0.37,0.43-0.56c0.15-0.19,0.28-0.38,0.41-0.58v-0.01c0.11-0.16,0.23-0.31,0.33-0.47
					c0.17-0.25,0.33-0.5,0.48-0.76c0.18-0.29,0.35-0.58,0.52-0.88c0.03-0.04,0.05-0.09,0.07-0.13c0.2-0.35,0.38-0.7,0.55-1.06
					c0.95-1.92,1.66-3.97,2.11-6.12l0.26-1.24l1.02-4.92l1.06-5.14h14.22l1.06,5.13l1.28,6.17c0.08,0.4,0.17,0.8,0.28,1.19
					c0.07,0.29,0.15,0.58,0.24,0.87c0.03,0.11,0.07,0.21,0.1,0.31c0.01,0.08,0.04,0.15,0.07,0.23c0.09,0.31,0.2,0.61,0.31,0.91
					c0.13,0.38,0.27,0.75,0.44,1.12c0.12,0.33,0.27,0.65,0.42,0.97c0.29,0.64,0.61,1.27,0.97,1.88c0.16,0.3,0.34,0.6,0.54,0.9
					c0.15,0.26,0.31,0.51,0.49,0.76c0.06,0.1,0.13,0.19,0.19,0.28c0.15,0.24,0.32,0.47,0.5,0.7c0.42,0.56,0.86,1.1,1.32,1.63
					c0.22,0.26,0.46,0.52,0.71,0.77c0.23,0.26,0.48,0.51,0.74,0.75c0.25,0.25,0.51,0.49,0.77,0.71c0.19,0.17,0.38,0.34,0.58,0.5
					c0.19,0.16,0.38,0.32,0.58,0.47c0.03,0.03,0.06,0.05,0.09,0.07c0.22,0.17,0.43,0.34,0.65,0.49c0.76,0.57,1.55,1.08,2.38,1.56
					c1.13,0.65,2.33,1.22,3.57,1.7l5.97,2.3C287.02,438.87,291.81,442.74,295.1,447.72z"/>
				<path style="fill:#F69779;" d="M271.82,432.69c-3.58,5.85-10.16,12.46-21.82,13.36c-11.66-0.9-18.24-7.51-21.82-13.36
					c6.32-3.63,10.86-9.81,12.37-17.07l0.26-1.24l2.08-10.06h14.22l2.34,11.3c0.33,1.6,0.81,3.15,1.44,4.63
					C263.05,425.48,266.9,429.86,271.82,432.69z"/>
				<g>
					<g>
						<path style="fill:#F37A67;" d="M260.89,420.25c-3.23,1.13-5.73,1.13-5.73,1.13s-8.46,0-14.35-7l2.08-10.06h14.22l2.34,11.3
							C259.78,417.22,260.26,418.77,260.89,420.25z"/>
					</g>
				</g>
				<g>
					<g>
						<path style="fill:#F69779;" d="M269.122,392.304c-0.237,3.36-1.117,6.672-2.829,9.573C260.548,411.61,250,411.61,250,411.61
							s-16.76,0-19.54-19.5c-1.58-0.36-2.93-1.37-3.84-2.71c-0.91-1.34-1.29-3.02-1.05-4.63c0.12-0.79,0.42-1.6,1.03-2.13
							c0.55-0.48,1.3-0.68,2.03-0.65c0.73,0.03,1.43,0.28,2.09,0.6c0,0,0.06-18.44,6.6-18.65c4.28-0.22,6.19,1.07,12.68,1.07
							c6.49,0,8.4-1.29,12.68-1.07c6.54,0.21,6.6,18.65,6.6,18.65S269.499,386.944,269.122,392.304z"/>
					</g>
				</g>
			</g>
			<path style="fill:#051733;" d="M239.33,434.39c-5.01,3.93-16.83,7.11-23.58,2.61l-0.6-12.21c5.89-8.43,7.69-22.91,8.41-33.48
				c0.13-1.89,0.23-3.65,0.31-5.23c0.35-6.9,1.36-16.25,6.16-23.31c1.93,0.56,3.76,1.14,3.76,1.14s-1.85,10.43,0,17.02
				c1.86,6.59,1.03,16.07,0,25.35C232.76,415.55,239.33,434.39,239.33,434.39z"/>
			<g>
				<path style="fill:#BF2D28;" d="M280.98,458.12c-1.11,0.61-2.23,1.18-3.38,1.71v-13.67l1.46,5.17L280.98,458.12z"/>
				<path style="fill:#BF2D28;" d="M222.4,446.16v13.67c-1.15-0.53-2.27-1.1-3.38-1.71l1.92-6.79L222.4,446.16z"/>
			</g>
			<g>
				<path style="fill:#F37A67;" d="M249.061,383.837v11.441H251C254.323,395.277,249.678,385.151,249.061,383.837z"/>
				<g>
					<g>
						<path style="fill:#051733;" d="M263.158,379.379c-2.68-1.324-5.658-1.52-8.452-0.41c-1.183,0.471-0.668,2.406,0.532,1.929
							c2.289-0.91,4.686-0.891,6.911,0.208C263.301,381.675,264.314,379.951,263.158,379.379z"/>
						<path style="fill:#051733;" d="M260.745,382.943c-0.609-1.056-1.886-0.992-1.886-0.992c-1.042,0-1.886,0.845-1.886,1.886
							c0,1.042,0.844,1.886,1.886,1.886c0.23,0,0.447-0.047,0.651-0.122l0.001,0.005c0.012-0.004,0.021-0.011,0.033-0.016
							c0.061-0.024,0.118-0.054,0.176-0.084c1.649-0.715,1.825-2.546,1.825-2.546C261.216,383.237,260.745,382.943,260.745,382.943z
							"/>
					</g>
					<g>
						<path style="fill:#051733;" d="M236.842,379.379c2.68-1.324,5.659-1.52,8.452-0.41c1.183,0.471,0.668,2.406-0.532,1.929
							c-2.289-0.91-4.686-0.891-6.911,0.208C236.699,381.675,235.686,379.951,236.842,379.379z"/>
						<path style="fill:#051733;" d="M239.255,382.943c0.609-1.056,1.886-0.992,1.886-0.992c1.042,0,1.886,0.845,1.886,1.886
							c0,1.042-0.844,1.886-1.886,1.886c-0.23,0-0.447-0.047-0.651-0.122l-0.001,0.005c-0.012-0.004-0.021-0.011-0.033-0.016
							c-0.061-0.024-0.118-0.054-0.176-0.084c-1.649-0.715-1.825-2.546-1.825-2.546
							C238.784,383.237,239.255,382.943,239.255,382.943z"/>
					</g>
				</g>
				<path style="fill:#FFFFFF;" d="M243.854,399.462c0.665,2.482,3.16,4.33,6.146,4.33c2.985,0,5.481-1.848,6.146-4.33H243.854z"/>
			</g>
		</g>
	</g>
</g>
</svg>
