<svg width="20" height="20" viewBox="0 0 20 20" fill="none" xmlns="http://www.w3.org/2000/svg">
<path d="M17.8917 13.4167C17.2207 14.1821 16.335 14.7281 15.3498 14.9837C14.3645 15.2393 13.3251 15.1927 12.3667 14.85L7.42499 13.075C7.31081 13.0342 7.21063 12.9617 7.13621 12.8659C7.06179 12.7702 7.01622 12.6552 7.00485 12.5345C6.99348 12.4137 7.01677 12.2923 7.072 12.1843C7.12723 12.0764 7.2121 11.9864 7.31666 11.925L7.77499 11.6667C8.09999 11.4667 8.49999 11.425 8.85833 11.55L11.1417 12.3667L11.4583 12.0083L5.83333 7.04166C5.49999 6.75 5.46666 6.25 5.75833 5.90833C6.04999 5.58333 6.55833 5.55 6.88333 5.83333L11.075 9.54166L11.5 9.05833L6.34999 4.51666C6.01666 4.22499 5.98333 3.71666 6.27499 3.39166C6.56666 3.05833 7.08333 3.02499 7.40833 3.33333L12.5583 7.86666L12.9833 7.38333L8.54999 3.47499C8.21666 3.18333 8.18333 2.67499 8.47499 2.34999C8.76666 2.02499 9.27499 1.98333 9.58333 2.27499L14.0333 6.18333L14.4583 5.70833L11.4667 3.06666C11.1333 2.77499 11.1 2.26666 11.3917 1.93333C11.6833 1.59999 12.1917 1.575 12.5 1.86666L17.4333 6.2C17.9378 6.64339 18.35 7.18192 18.6461 7.78478C18.9422 8.38763 19.1166 9.04296 19.1591 9.71328C19.2017 10.3836 19.1117 11.0557 18.8942 11.6912C18.6767 12.3267 18.336 12.913 17.8917 13.4167ZM7.68333 10.3417L4.99999 7.975C4.77499 7.77499 4.58333 7.525 4.47499 7.25L3.82499 6.93333C3.73109 6.88622 3.62873 6.85833 3.52391 6.8513C3.41909 6.84428 3.31392 6.85825 3.21457 6.8924C3.11522 6.92655 3.02369 6.98019 2.94534 7.05019C2.867 7.12018 2.80342 7.20511 2.75833 7.3C2.66706 7.49031 2.65436 7.7089 2.72298 7.9085C2.79159 8.1081 2.936 8.27268 3.12499 8.36666L7.40833 10.4583C7.49999 10.4167 7.59166 10.3667 7.68333 10.3417ZM6.66666 10.8333H6.70833L1.98333 8.51666C1.79196 8.42621 1.57265 8.41485 1.37296 8.48505C1.17328 8.55526 1.00932 8.70136 0.916659 8.89166C0.869895 8.98563 0.842283 9.08796 0.83543 9.19269C0.828576 9.29743 0.842618 9.40248 0.876738 9.50174C0.910859 9.601 0.964376 9.69248 1.03418 9.77087C1.10398 9.84925 1.18867 9.91298 1.28333 9.95833L5.79166 12.1583C5.88333 11.6167 6.19166 11.1417 6.66666 10.8333ZM11.9417 16.025L6.99999 14.25C6.37499 14.025 5.94999 13.5 5.80833 12.875L2.14999 11.0917C1.95982 10.9995 1.7409 10.9863 1.54105 11.055C1.34119 11.1237 1.17664 11.2687 1.08333 11.4583C1.03656 11.5523 1.00895 11.6546 1.0021 11.7594C0.995243 11.8641 1.00928 11.9691 1.04341 12.0684C1.07753 12.1677 1.13104 12.2591 1.20084 12.3375C1.27065 12.4159 1.35534 12.4796 1.44999 12.525L8.19999 15.8333L7.99166 16.25L5.56666 16.075C5.19166 16.0417 4.81666 16.1917 4.54999 16.4583L4.16666 16.8417C3.80833 17.2333 4.04999 17.875 4.58333 17.9167L9.82499 18.3333C11.525 18.4417 13.15 17.6917 14.1667 16.375C13.4333 16.3917 12.675 16.2833 11.9417 16.025Z" fill="black" fill-opacity="0.5"/>
</svg>
