<svg width="20" height="20" viewBox="0 0 20 20" fill="none" xmlns="http://www.w3.org/2000/svg">
<path fill-rule="evenodd" clip-rule="evenodd" d="M1.66667 9.99999C1.66667 14.6025 5.3975 18.3333 10 18.3333C11.2278 18.334 12.4406 18.0634 13.5517 17.5408L17.3325 18.3158C17.4675 18.3434 17.6072 18.3371 17.7392 18.2975C17.8711 18.2578 17.9912 18.1861 18.0886 18.0886C18.1861 17.9912 18.2578 17.8711 18.2975 17.7392C18.3371 17.6072 18.3434 17.4675 18.3158 17.3325L17.5408 13.5517C18.0492 12.4733 18.3325 11.2683 18.3325 9.99999C18.3325 5.39749 14.6025 1.66666 9.99917 1.66666C5.3975 1.66666 1.66583 5.39749 1.66583 9.99999" fill="black" fill-opacity="0.5"/>
</svg>
