<svg width="25" height="25" viewBox="0 0 25 25" fill="none" xmlns="http://www.w3.org/2000/svg">
<path d="M21.2207 16.3591L19.1472 12.5944L19.1195 8.65955C19.0919 4.73091 15.8732 1.5572 11.9446 1.58482C8.01593 1.61244 4.84221 4.83111 4.86984 8.75974L4.89751 12.6946L2.877 16.4881C2.78538 16.6601 2.74001 16.853 2.74534 17.0478C2.75068 17.2426 2.80653 17.4327 2.90744 17.5994C3.00834 17.7662 3.15083 17.9038 3.32095 17.9989C3.49107 18.094 3.68297 18.1433 3.87786 18.1419L7.95284 18.1133C7.94235 18.2381 7.93749 18.3632 7.93827 18.4884C7.94597 19.5824 8.38793 20.6285 9.16694 21.3967C9.94594 22.1648 10.9982 22.592 12.0922 22.5843C13.1862 22.5766 14.2323 22.1346 15.0004 21.3556C15.7686 20.5766 16.1958 19.5244 16.1881 18.4304C16.1872 18.3038 16.1803 18.179 16.1682 18.0555L20.2432 18.0269C20.4381 18.0255 20.6292 17.9735 20.798 17.876C20.9667 17.7785 21.1072 17.6388 21.2058 17.4707C21.3043 17.3026 21.3575 17.1117 21.3601 16.9169C21.3627 16.722 21.3146 16.5298 21.2206 16.3591L21.2207 16.3591ZM14.6882 18.4409C14.691 18.8017 14.6194 19.1591 14.478 19.491C14.3365 19.8228 14.1282 20.1219 13.8659 20.3697C13.6037 20.6174 13.2932 20.8084 12.9539 20.9308C12.6146 21.0532 12.2536 21.1044 11.8937 21.0811C11.5337 21.0578 11.1824 20.9605 10.8616 20.7954C10.5409 20.6302 10.2577 20.4008 10.0296 20.1213C9.80147 19.8418 9.63343 19.5183 9.53593 19.171C9.43843 18.8237 9.41356 18.46 9.46288 18.1027L14.6582 18.0661C14.6771 18.1902 14.6871 18.3155 14.6882 18.4409V18.4409ZM4.49688 16.6376L6.40014 13.0642L6.3698 8.7492C6.35931 7.25739 6.94187 5.82252 7.98932 4.76023C9.03677 3.69795 10.4633 3.09527 11.9551 3.08478C13.4469 3.07429 14.8818 3.65685 15.9441 4.7043C17.0064 5.75175 17.609 7.17829 17.6195 8.67009L17.6499 12.9851L19.6031 16.5313L4.49688 16.6376Z" fill="#757575"/>
</svg>
