<svg width="25" height="25" viewBox="0 0 25 25" fill="none" xmlns="http://www.w3.org/2000/svg">
<g id="jam:write">
<path id="Vector" d="M7.83482 16.5694L9.59222 16.0491L20.1199 5.24524C20.203 5.15896 20.2487 5.04347 20.2473 4.92373C20.2459 4.80399 20.1975 4.6896 20.1125 4.60528L19.473 3.96774C19.4317 3.92586 19.3824 3.89264 19.3281 3.87C19.2738 3.84737 19.2155 3.83578 19.1567 3.83591C19.0978 3.83605 19.0396 3.8479 18.9854 3.87077C18.9312 3.89365 18.8821 3.92709 18.841 3.96916L8.34107 14.7448L7.83381 16.5684L7.83482 16.5694ZM20.7211 2.68698L21.3605 3.32552C22.2427 4.20637 22.2607 5.63728 21.3989 6.52133L10.5505 17.6555L6.79415 18.7658C6.5648 18.8317 6.31867 18.8039 6.10976 18.6886C5.90085 18.5733 5.74623 18.3797 5.67982 18.1505C5.63045 17.9857 5.62853 17.8104 5.67429 17.6446L6.74241 13.797L17.562 2.69207C17.7678 2.48198 18.0133 2.31496 18.2842 2.20076C18.5552 2.08655 18.8462 2.02744 19.1403 2.02687C19.4343 2.02631 19.7255 2.08429 19.9969 2.19746C20.2683 2.31062 20.5145 2.47669 20.7211 2.68598L20.7211 2.68698ZM9.2104 3.9205C9.70639 3.91703 10.1112 4.32121 10.1147 4.8232C10.1164 4.94186 10.0946 5.05967 10.0506 5.16991C10.0067 5.28014 9.94145 5.38063 9.85864 5.46563C9.77583 5.55064 9.67708 5.61849 9.56803 5.6653C9.45898 5.71211 9.34178 5.73697 9.22312 5.73845L5.6312 5.76357C4.63923 5.77051 3.84094 6.59011 3.84795 7.59308L3.92422 18.4988C3.93124 19.5028 4.74091 20.3112 5.73289 20.3042L16.5086 20.2289C17.5006 20.2219 18.2999 19.4023 18.2929 18.3983L18.2674 14.7634C18.2639 14.2614 18.6631 13.8516 19.1591 13.8482C19.6551 13.8447 20.0599 14.2489 20.0634 14.7519L20.0888 18.3858C20.1029 20.3937 18.5053 22.0329 16.5213 22.0468L5.7456 22.1222C3.76165 22.136 2.1423 20.5193 2.12826 18.5114L2.052 7.60564C2.03796 5.59869 3.63454 3.95949 5.61849 3.94561L9.2104 3.9205V3.9205Z" fill="#757575"/>
</g>
</svg>
