<svg width="50" height="30" viewBox="0 0 50 30" fill="none" xmlns="http://www.w3.org/2000/svg">
<g clip-path="url(#clip0_2_23)">
<path d="M28.1829 15.1021C28.1714 22.7645 21.8881 28.969 14.1492 28.9602C6.41031 28.9513 0.1452 22.7312 0.156709 15.0701C0.168217 7.40907 6.45152 1.20274 14.1909 1.21156C21.9303 1.22038 28.1945 7.43961 28.1829 15.1021ZM43.5555 15.1196C43.5447 22.3321 40.3989 28.1778 36.5293 28.1734C32.6596 28.169 29.5314 22.3162 29.5422 15.1036C29.553 7.89106 32.6983 2.04539 36.568 2.0498C40.4377 2.05421 43.5659 7.90516 43.5551 15.1196L43.5555 15.1196ZM49.8433 15.1267C49.8336 21.5874 48.7226 26.8268 47.3615 26.8253C46.0003 26.8237 44.9056 21.5832 44.9153 15.1211C44.925 8.65905 46.036 3.42108 47.3966 3.42263C48.7573 3.42418 49.853 8.6642 49.8433 15.1267" fill="black"/>
</g>
<defs>
<clipPath id="clip0_2_23">
<rect width="49.6866" height="27.7486" fill="white" transform="matrix(0.999999 0.00113969 -0.0015022 0.999999 0.177551 1.19559)"/>
</clipPath>
</defs>
</svg>
